<?xml version="1.0" encoding="utf-8" standalone="no"?>
<!DOCTYPE svg PUBLIC "-//W3C//DTD SVG 1.1//EN"
  "http://www.w3.org/Graphics/SVG/1.1/DTD/svg11.dtd">
<svg xmlns:xlink="http://www.w3.org/1999/xlink" width="395.328125pt" height="262.19625pt" viewBox="0 0 395.328125 262.19625" xmlns="http://www.w3.org/2000/svg" version="1.1">
 <metadata>
  <rdf:RDF xmlns:dc="http://purl.org/dc/elements/1.1/" xmlns:cc="http://creativecommons.org/ns#" xmlns:rdf="http://www.w3.org/1999/02/22-rdf-syntax-ns#">
   <cc:Work>
    <dc:type rdf:resource="http://purl.org/dc/dcmitype/StillImage"/>
    <dc:date>2022-07-03T12:59:49.992834</dc:date>
    <dc:format>image/svg+xml</dc:format>
    <dc:creator>
     <cc:Agent>
      <dc:title>Matplotlib v3.5.2, https://matplotlib.org/</dc:title>
     </cc:Agent>
    </dc:creator>
   </cc:Work>
  </rdf:RDF>
 </metadata>
 <defs>
  <style type="text/css">*{stroke-linejoin: round; stroke-linecap: butt}</style>
 </defs>
 <g id="figure_1">
  <g id="patch_1">
   <path d="M 0 262.19625 
L 395.328125 262.19625 
L 395.328125 0 
L 0 0 
L 0 262.19625 
z
" style="fill: none"/>
  </g>
  <g id="axes_1">
   <g id="patch_2">
    <path d="M 53.328125 224.64 
L 388.128125 224.64 
L 388.128125 7.2 
L 53.328125 7.2 
z
" style="fill: #ffffff"/>
   </g>
   <g id="patch_3">
    <path d="M 68.546307 224.64 
L 72.350852 224.64 
L 72.350852 131.024786 
L 68.546307 131.024786 
z
" clip-path="url(#p36091c24fd)" style="fill: #1f77b4"/>
   </g>
   <g id="patch_4">
    <path d="M 72.350852 224.64 
L 76.155398 224.64 
L 76.155398 121.917609 
L 72.350852 121.917609 
z
" clip-path="url(#p36091c24fd)" style="fill: #1f77b4"/>
   </g>
   <g id="patch_5">
    <path d="M 76.155398 224.64 
L 79.959943 224.64 
L 79.959943 105.590328 
L 76.155398 105.590328 
z
" clip-path="url(#p36091c24fd)" style="fill: #1f77b4"/>
   </g>
   <g id="patch_6">
    <path d="M 79.959943 224.64 
L 83.764489 224.64 
L 83.764489 63.33631 
L 79.959943 63.33631 
z
" clip-path="url(#p36091c24fd)" style="fill: #1f77b4"/>
   </g>
   <g id="patch_7">
    <path d="M 83.764489 224.64 
L 87.569034 224.64 
L 87.569034 51.60364 
L 83.764489 51.60364 
z
" clip-path="url(#p36091c24fd)" style="fill: #1f77b4"/>
   </g>
   <g id="patch_8">
    <path d="M 87.569034 224.64 
L 91.37358 224.64 
L 91.37358 34.127707 
L 87.569034 34.127707 
z
" clip-path="url(#p36091c24fd)" style="fill: #1f77b4"/>
   </g>
   <g id="patch_9">
    <path d="M 91.37358 224.64 
L 95.178125 224.64 
L 95.178125 17.554286 
L 91.37358 17.554286 
z
" clip-path="url(#p36091c24fd)" style="fill: #1f77b4"/>
   </g>
   <g id="patch_10">
    <path d="M 95.178125 224.64 
L 98.98267 224.64 
L 98.98267 26.087136 
L 95.178125 26.087136 
z
" clip-path="url(#p36091c24fd)" style="fill: #1f77b4"/>
   </g>
   <g id="patch_11">
    <path d="M 98.98267 224.64 
L 102.787216 224.64 
L 102.787216 53.08048 
L 98.98267 53.08048 
z
" clip-path="url(#p36091c24fd)" style="fill: #1f77b4"/>
   </g>
   <g id="patch_12">
    <path d="M 102.787216 224.64 
L 106.591761 224.64 
L 106.591761 68.833434 
L 102.787216 68.833434 
z
" clip-path="url(#p36091c24fd)" style="fill: #1f77b4"/>
   </g>
   <g id="patch_13">
    <path d="M 106.591761 224.64 
L 110.396307 224.64 
L 110.396307 92.791053 
L 106.591761 92.791053 
z
" clip-path="url(#p36091c24fd)" style="fill: #1f77b4"/>
   </g>
   <g id="patch_14">
    <path d="M 110.396307 224.64 
L 114.200852 224.64 
L 114.200852 116.830718 
L 110.396307 116.830718 
z
" clip-path="url(#p36091c24fd)" style="fill: #1f77b4"/>
   </g>
   <g id="patch_15">
    <path d="M 114.200852 224.64 
L 118.005398 224.64 
L 118.005398 128.891573 
L 114.200852 128.891573 
z
" clip-path="url(#p36091c24fd)" style="fill: #1f77b4"/>
   </g>
   <g id="patch_16">
    <path d="M 118.005398 224.64 
L 121.809943 224.64 
L 121.809943 148.664813 
L 118.005398 148.664813 
z
" clip-path="url(#p36091c24fd)" style="fill: #1f77b4"/>
   </g>
   <g id="patch_17">
    <path d="M 121.809943 224.64 
L 125.614489 224.64 
L 125.614489 163.597301 
L 121.809943 163.597301 
z
" clip-path="url(#p36091c24fd)" style="fill: #1f77b4"/>
   </g>
   <g id="patch_18">
    <path d="M 125.614489 224.64 
L 129.419034 224.64 
L 129.419034 180.745049 
L 125.614489 180.745049 
z
" clip-path="url(#p36091c24fd)" style="fill: #1f77b4"/>
   </g>
   <g id="patch_19">
    <path d="M 129.419034 224.64 
L 133.22358 224.64 
L 133.22358 189.606086 
L 129.419034 189.606086 
z
" clip-path="url(#p36091c24fd)" style="fill: #1f77b4"/>
   </g>
   <g id="patch_20">
    <path d="M 133.22358 224.64 
L 137.028125 224.64 
L 137.028125 200.764428 
L 133.22358 200.764428 
z
" clip-path="url(#p36091c24fd)" style="fill: #1f77b4"/>
   </g>
   <g id="patch_21">
    <path d="M 137.028125 224.64 
L 140.83267 224.64 
L 140.83267 204.292434 
L 137.028125 204.292434 
z
" clip-path="url(#p36091c24fd)" style="fill: #1f77b4"/>
   </g>
   <g id="patch_22">
    <path d="M 140.83267 224.64 
L 144.637216 224.64 
L 144.637216 212.825284 
L 140.83267 212.825284 
z
" clip-path="url(#p36091c24fd)" style="fill: #1f77b4"/>
   </g>
   <g id="patch_23">
    <path d="M 144.637216 224.64 
L 148.441761 224.64 
L 148.441761 216.025103 
L 144.637216 216.025103 
z
" clip-path="url(#p36091c24fd)" style="fill: #1f77b4"/>
   </g>
   <g id="patch_24">
    <path d="M 148.441761 224.64 
L 152.246307 224.64 
L 152.246307 219.060829 
L 148.441761 219.060829 
z
" clip-path="url(#p36091c24fd)" style="fill: #1f77b4"/>
   </g>
   <g id="patch_25">
    <path d="M 152.246307 224.64 
L 156.050852 224.64 
L 156.050852 220.291528 
L 152.246307 220.291528 
z
" clip-path="url(#p36091c24fd)" style="fill: #1f77b4"/>
   </g>
   <g id="patch_26">
    <path d="M 156.050852 224.64 
L 159.855398 224.64 
L 159.855398 220.291528 
L 156.050852 220.291528 
z
" clip-path="url(#p36091c24fd)" style="fill: #1f77b4"/>
   </g>
   <g id="patch_27">
    <path d="M 159.855398 224.64 
L 163.659943 224.64 
L 163.659943 221.111995 
L 159.855398 221.111995 
z
" clip-path="url(#p36091c24fd)" style="fill: #1f77b4"/>
   </g>
   <g id="patch_28">
    <path d="M 163.659943 224.64 
L 167.464489 224.64 
L 167.464489 222.096554 
L 163.659943 222.096554 
z
" clip-path="url(#p36091c24fd)" style="fill: #1f77b4"/>
   </g>
   <g id="patch_29">
    <path d="M 167.464489 224.64 
L 171.269034 224.64 
L 171.269034 221.029948 
L 167.464489 221.029948 
z
" clip-path="url(#p36091c24fd)" style="fill: #1f77b4"/>
   </g>
   <g id="patch_30">
    <path d="M 171.269034 224.64 
L 175.07358 224.64 
L 175.07358 220.865855 
L 171.269034 220.865855 
z
" clip-path="url(#p36091c24fd)" style="fill: #1f77b4"/>
   </g>
   <g id="patch_31">
    <path d="M 175.07358 224.64 
L 178.878125 224.64 
L 178.878125 220.701761 
L 175.07358 220.701761 
z
" clip-path="url(#p36091c24fd)" style="fill: #1f77b4"/>
   </g>
   <g id="patch_32">
    <path d="M 178.878125 224.64 
L 182.68267 224.64 
L 182.68267 218.240362 
L 178.878125 218.240362 
z
" clip-path="url(#p36091c24fd)" style="fill: #1f77b4"/>
   </g>
   <g id="patch_33">
    <path d="M 182.68267 224.64 
L 186.487216 224.64 
L 186.487216 217.501942 
L 182.68267 217.501942 
z
" clip-path="url(#p36091c24fd)" style="fill: #1f77b4"/>
   </g>
   <g id="patch_34">
    <path d="M 186.487216 224.64 
L 190.291761 224.64 
L 190.291761 220.455621 
L 186.487216 220.455621 
z
" clip-path="url(#p36091c24fd)" style="fill: #1f77b4"/>
   </g>
   <g id="patch_35">
    <path d="M 190.291761 224.64 
L 194.096307 224.64 
L 194.096307 221.194041 
L 190.291761 221.194041 
z
" clip-path="url(#p36091c24fd)" style="fill: #1f77b4"/>
   </g>
   <g id="patch_36">
    <path d="M 194.096307 224.64 
L 197.900852 224.64 
L 197.900852 222.424741 
L 194.096307 222.424741 
z
" clip-path="url(#p36091c24fd)" style="fill: #1f77b4"/>
   </g>
   <g id="patch_37">
    <path d="M 197.900852 224.64 
L 201.705398 224.64 
L 201.705398 221.440181 
L 197.900852 221.440181 
z
" clip-path="url(#p36091c24fd)" style="fill: #1f77b4"/>
   </g>
   <g id="patch_38">
    <path d="M 201.705398 224.64 
L 205.509943 224.64 
L 205.509943 223.081114 
L 201.705398 223.081114 
z
" clip-path="url(#p36091c24fd)" style="fill: #1f77b4"/>
   </g>
   <g id="patch_39">
    <path d="M 205.509943 224.64 
L 209.314489 224.64 
L 209.314489 223.819534 
L 205.509943 223.819534 
z
" clip-path="url(#p36091c24fd)" style="fill: #1f77b4"/>
   </g>
   <g id="patch_40">
    <path d="M 209.314489 224.64 
L 213.119034 224.64 
L 213.119034 223.983627 
L 209.314489 223.983627 
z
" clip-path="url(#p36091c24fd)" style="fill: #1f77b4"/>
   </g>
   <g id="patch_41">
    <path d="M 213.119034 224.64 
L 216.92358 224.64 
L 216.92358 223.491347 
L 213.119034 223.491347 
z
" clip-path="url(#p36091c24fd)" style="fill: #1f77b4"/>
   </g>
   <g id="patch_42">
    <path d="M 216.92358 224.64 
L 220.728125 224.64 
L 220.728125 223.65544 
L 216.92358 223.65544 
z
" clip-path="url(#p36091c24fd)" style="fill: #1f77b4"/>
   </g>
   <g id="patch_43">
    <path d="M 220.728125 224.64 
L 224.53267 224.64 
L 224.53267 224.065674 
L 220.728125 224.065674 
z
" clip-path="url(#p36091c24fd)" style="fill: #1f77b4"/>
   </g>
   <g id="patch_44">
    <path d="M 224.53267 224.64 
L 228.337216 224.64 
L 228.337216 223.573394 
L 224.53267 223.573394 
z
" clip-path="url(#p36091c24fd)" style="fill: #1f77b4"/>
   </g>
   <g id="patch_45">
    <path d="M 228.337216 224.64 
L 232.141761 224.64 
L 232.141761 223.491347 
L 228.337216 223.491347 
z
" clip-path="url(#p36091c24fd)" style="fill: #1f77b4"/>
   </g>
   <g id="patch_46">
    <path d="M 232.141761 224.64 
L 235.946307 224.64 
L 235.946307 224.39386 
L 232.141761 224.39386 
z
" clip-path="url(#p36091c24fd)" style="fill: #1f77b4"/>
   </g>
   <g id="patch_47">
    <path d="M 235.946307 224.64 
L 239.750852 224.64 
L 239.750852 224.065674 
L 235.946307 224.065674 
z
" clip-path="url(#p36091c24fd)" style="fill: #1f77b4"/>
   </g>
   <g id="patch_48">
    <path d="M 239.750852 224.64 
L 243.555398 224.64 
L 243.555398 224.557953 
L 239.750852 224.557953 
z
" clip-path="url(#p36091c24fd)" style="fill: #1f77b4"/>
   </g>
   <g id="patch_49">
    <path d="M 243.555398 224.64 
L 247.359943 224.64 
L 247.359943 224.557953 
L 243.555398 224.557953 
z
" clip-path="url(#p36091c24fd)" style="fill: #1f77b4"/>
   </g>
   <g id="patch_50">
    <path d="M 247.359943 224.64 
L 251.164489 224.64 
L 251.164489 223.737487 
L 247.359943 223.737487 
z
" clip-path="url(#p36091c24fd)" style="fill: #1f77b4"/>
   </g>
   <g id="patch_51">
    <path d="M 251.164489 224.64 
L 254.969034 224.64 
L 254.969034 224.475907 
L 251.164489 224.475907 
z
" clip-path="url(#p36091c24fd)" style="fill: #1f77b4"/>
   </g>
   <g id="patch_52">
    <path d="M 254.969034 224.64 
L 258.77358 224.64 
L 258.77358 224.475907 
L 254.969034 224.475907 
z
" clip-path="url(#p36091c24fd)" style="fill: #1f77b4"/>
   </g>
   <g id="patch_53">
    <path d="M 258.77358 224.64 
L 262.578125 224.64 
L 262.578125 224.14772 
L 258.77358 224.14772 
z
" clip-path="url(#p36091c24fd)" style="fill: #1f77b4"/>
   </g>
   <g id="patch_54">
    <path d="M 262.578125 224.64 
L 266.38267 224.64 
L 266.38267 224.311813 
L 262.578125 224.311813 
z
" clip-path="url(#p36091c24fd)" style="fill: #1f77b4"/>
   </g>
   <g id="patch_55">
    <path d="M 266.38267 224.64 
L 270.187216 224.64 
L 270.187216 224.39386 
L 266.38267 224.39386 
z
" clip-path="url(#p36091c24fd)" style="fill: #1f77b4"/>
   </g>
   <g id="patch_56">
    <path d="M 270.187216 224.64 
L 273.991761 224.64 
L 273.991761 224.64 
L 270.187216 224.64 
z
" clip-path="url(#p36091c24fd)" style="fill: #1f77b4"/>
   </g>
   <g id="patch_57">
    <path d="M 273.991761 224.64 
L 277.796307 224.64 
L 277.796307 224.475907 
L 273.991761 224.475907 
z
" clip-path="url(#p36091c24fd)" style="fill: #1f77b4"/>
   </g>
   <g id="patch_58">
    <path d="M 277.796307 224.64 
L 281.600852 224.64 
L 281.600852 224.475907 
L 277.796307 224.475907 
z
" clip-path="url(#p36091c24fd)" style="fill: #1f77b4"/>
   </g>
   <g id="patch_59">
    <path d="M 281.600852 224.64 
L 285.405398 224.64 
L 285.405398 224.475907 
L 281.600852 224.475907 
z
" clip-path="url(#p36091c24fd)" style="fill: #1f77b4"/>
   </g>
   <g id="patch_60">
    <path d="M 285.405398 224.64 
L 289.209943 224.64 
L 289.209943 224.311813 
L 285.405398 224.311813 
z
" clip-path="url(#p36091c24fd)" style="fill: #1f77b4"/>
   </g>
   <g id="patch_61">
    <path d="M 289.209943 224.64 
L 293.014489 224.64 
L 293.014489 224.311813 
L 289.209943 224.311813 
z
" clip-path="url(#p36091c24fd)" style="fill: #1f77b4"/>
   </g>
   <g id="patch_62">
    <path d="M 293.014489 224.64 
L 296.819034 224.64 
L 296.819034 224.557953 
L 293.014489 224.557953 
z
" clip-path="url(#p36091c24fd)" style="fill: #1f77b4"/>
   </g>
   <g id="patch_63">
    <path d="M 296.819034 224.64 
L 300.62358 224.64 
L 300.62358 224.475907 
L 296.819034 224.475907 
z
" clip-path="url(#p36091c24fd)" style="fill: #1f77b4"/>
   </g>
   <g id="patch_64">
    <path d="M 300.62358 224.64 
L 304.428125 224.64 
L 304.428125 224.39386 
L 300.62358 224.39386 
z
" clip-path="url(#p36091c24fd)" style="fill: #1f77b4"/>
   </g>
   <g id="patch_65">
    <path d="M 304.428125 224.64 
L 308.23267 224.64 
L 308.23267 224.475907 
L 304.428125 224.475907 
z
" clip-path="url(#p36091c24fd)" style="fill: #1f77b4"/>
   </g>
   <g id="patch_66">
    <path d="M 308.23267 224.64 
L 312.037216 224.64 
L 312.037216 224.39386 
L 308.23267 224.39386 
z
" clip-path="url(#p36091c24fd)" style="fill: #1f77b4"/>
   </g>
   <g id="patch_67">
    <path d="M 312.037216 224.64 
L 315.841761 224.64 
L 315.841761 224.39386 
L 312.037216 224.39386 
z
" clip-path="url(#p36091c24fd)" style="fill: #1f77b4"/>
   </g>
   <g id="patch_68">
    <path d="M 315.841761 224.64 
L 319.646307 224.64 
L 319.646307 224.39386 
L 315.841761 224.39386 
z
" clip-path="url(#p36091c24fd)" style="fill: #1f77b4"/>
   </g>
   <g id="patch_69">
    <path d="M 319.646307 224.64 
L 323.450852 224.64 
L 323.450852 224.39386 
L 319.646307 224.39386 
z
" clip-path="url(#p36091c24fd)" style="fill: #1f77b4"/>
   </g>
   <g id="patch_70">
    <path d="M 323.450852 224.64 
L 327.255398 224.64 
L 327.255398 224.475907 
L 323.450852 224.475907 
z
" clip-path="url(#p36091c24fd)" style="fill: #1f77b4"/>
   </g>
   <g id="patch_71">
    <path d="M 327.255398 224.64 
L 331.059943 224.64 
L 331.059943 224.475907 
L 327.255398 224.475907 
z
" clip-path="url(#p36091c24fd)" style="fill: #1f77b4"/>
   </g>
   <g id="patch_72">
    <path d="M 331.059943 224.64 
L 334.864489 224.64 
L 334.864489 224.557953 
L 331.059943 224.557953 
z
" clip-path="url(#p36091c24fd)" style="fill: #1f77b4"/>
   </g>
   <g id="patch_73">
    <path d="M 334.864489 224.64 
L 338.669034 224.64 
L 338.669034 224.39386 
L 334.864489 224.39386 
z
" clip-path="url(#p36091c24fd)" style="fill: #1f77b4"/>
   </g>
   <g id="patch_74">
    <path d="M 338.669034 224.64 
L 342.47358 224.64 
L 342.47358 224.475907 
L 338.669034 224.475907 
z
" clip-path="url(#p36091c24fd)" style="fill: #1f77b4"/>
   </g>
   <g id="patch_75">
    <path d="M 342.47358 224.64 
L 346.278125 224.64 
L 346.278125 224.557953 
L 342.47358 224.557953 
z
" clip-path="url(#p36091c24fd)" style="fill: #1f77b4"/>
   </g>
   <g id="patch_76">
    <path d="M 346.278125 224.64 
L 350.08267 224.64 
L 350.08267 224.557953 
L 346.278125 224.557953 
z
" clip-path="url(#p36091c24fd)" style="fill: #1f77b4"/>
   </g>
   <g id="patch_77">
    <path d="M 350.08267 224.64 
L 353.887216 224.64 
L 353.887216 224.475907 
L 350.08267 224.475907 
z
" clip-path="url(#p36091c24fd)" style="fill: #1f77b4"/>
   </g>
   <g id="patch_78">
    <path d="M 353.887216 224.64 
L 357.691761 224.64 
L 357.691761 224.39386 
L 353.887216 224.39386 
z
" clip-path="url(#p36091c24fd)" style="fill: #1f77b4"/>
   </g>
   <g id="patch_79">
    <path d="M 357.691761 224.64 
L 361.496307 224.64 
L 361.496307 224.065674 
L 357.691761 224.065674 
z
" clip-path="url(#p36091c24fd)" style="fill: #1f77b4"/>
   </g>
   <g id="patch_80">
    <path d="M 361.496307 224.64 
L 365.300852 224.64 
L 365.300852 224.557953 
L 361.496307 224.557953 
z
" clip-path="url(#p36091c24fd)" style="fill: #1f77b4"/>
   </g>
   <g id="patch_81">
    <path d="M 365.300852 224.64 
L 369.105398 224.64 
L 369.105398 224.475907 
L 365.300852 224.475907 
z
" clip-path="url(#p36091c24fd)" style="fill: #1f77b4"/>
   </g>
   <g id="patch_82">
    <path d="M 369.105398 224.64 
L 372.909943 224.64 
L 372.909943 224.311813 
L 369.105398 224.311813 
z
" clip-path="url(#p36091c24fd)" style="fill: #1f77b4"/>
   </g>
   <g id="matplotlib.axis_1">
    <g id="xtick_1">
     <g id="line2d_1">
      <defs>
       <path id="me26862e141" d="M 0 0 
L 0 3.5 
" style="stroke: #000000; stroke-width: 0.8"/>
      </defs>
      <g>
       <use xlink:href="#me26862e141" x="68.542144" y="224.64" style="stroke: #000000; stroke-width: 0.8"/>
      </g>
     </g>
     <g id="text_1">
      <!-- 0 -->
      <g transform="translate(65.360894 239.238437)scale(0.1 -0.1)">
       <defs>
        <path id="DejaVuSans-30" d="M 2034 4250 
Q 1547 4250 1301 3770 
Q 1056 3291 1056 2328 
Q 1056 1369 1301 889 
Q 1547 409 2034 409 
Q 2525 409 2770 889 
Q 3016 1369 3016 2328 
Q 3016 3291 2770 3770 
Q 2525 4250 2034 4250 
z
M 2034 4750 
Q 2819 4750 3233 4129 
Q 3647 3509 3647 2328 
Q 3647 1150 3233 529 
Q 2819 -91 2034 -91 
Q 1250 -91 836 529 
Q 422 1150 422 2328 
Q 422 3509 836 4129 
Q 1250 4750 2034 4750 
z
" transform="scale(0.015625)"/>
       </defs>
       <use xlink:href="#DejaVuSans-30"/>
      </g>
     </g>
    </g>
    <g id="xtick_2">
     <g id="line2d_2">
      <g>
       <use xlink:href="#me26862e141" x="129.528824" y="224.64" style="stroke: #000000; stroke-width: 0.8"/>
      </g>
     </g>
     <g id="text_2">
      <!-- 1 -->
      <g transform="translate(126.347574 239.238437)scale(0.1 -0.1)">
       <defs>
        <path id="DejaVuSans-31" d="M 794 531 
L 1825 531 
L 1825 4091 
L 703 3866 
L 703 4441 
L 1819 4666 
L 2450 4666 
L 2450 531 
L 3481 531 
L 3481 0 
L 794 0 
L 794 531 
z
" transform="scale(0.015625)"/>
       </defs>
       <use xlink:href="#DejaVuSans-31"/>
      </g>
     </g>
    </g>
    <g id="xtick_3">
     <g id="line2d_3">
      <g>
       <use xlink:href="#me26862e141" x="190.515505" y="224.64" style="stroke: #000000; stroke-width: 0.8"/>
      </g>
     </g>
     <g id="text_3">
      <!-- 2 -->
      <g transform="translate(187.334255 239.238437)scale(0.1 -0.1)">
       <defs>
        <path id="DejaVuSans-32" d="M 1228 531 
L 3431 531 
L 3431 0 
L 469 0 
L 469 531 
Q 828 903 1448 1529 
Q 2069 2156 2228 2338 
Q 2531 2678 2651 2914 
Q 2772 3150 2772 3378 
Q 2772 3750 2511 3984 
Q 2250 4219 1831 4219 
Q 1534 4219 1204 4116 
Q 875 4013 500 3803 
L 500 4441 
Q 881 4594 1212 4672 
Q 1544 4750 1819 4750 
Q 2544 4750 2975 4387 
Q 3406 4025 3406 3419 
Q 3406 3131 3298 2873 
Q 3191 2616 2906 2266 
Q 2828 2175 2409 1742 
Q 1991 1309 1228 531 
z
" transform="scale(0.015625)"/>
       </defs>
       <use xlink:href="#DejaVuSans-32"/>
      </g>
     </g>
    </g>
    <g id="xtick_4">
     <g id="line2d_4">
      <g>
       <use xlink:href="#me26862e141" x="251.502186" y="224.64" style="stroke: #000000; stroke-width: 0.8"/>
      </g>
     </g>
     <g id="text_4">
      <!-- 3 -->
      <g transform="translate(248.320936 239.238437)scale(0.1 -0.1)">
       <defs>
        <path id="DejaVuSans-33" d="M 2597 2516 
Q 3050 2419 3304 2112 
Q 3559 1806 3559 1356 
Q 3559 666 3084 287 
Q 2609 -91 1734 -91 
Q 1441 -91 1130 -33 
Q 819 25 488 141 
L 488 750 
Q 750 597 1062 519 
Q 1375 441 1716 441 
Q 2309 441 2620 675 
Q 2931 909 2931 1356 
Q 2931 1769 2642 2001 
Q 2353 2234 1838 2234 
L 1294 2234 
L 1294 2753 
L 1863 2753 
Q 2328 2753 2575 2939 
Q 2822 3125 2822 3475 
Q 2822 3834 2567 4026 
Q 2313 4219 1838 4219 
Q 1578 4219 1281 4162 
Q 984 4106 628 3988 
L 628 4550 
Q 988 4650 1302 4700 
Q 1616 4750 1894 4750 
Q 2613 4750 3031 4423 
Q 3450 4097 3450 3541 
Q 3450 3153 3228 2886 
Q 3006 2619 2597 2516 
z
" transform="scale(0.015625)"/>
       </defs>
       <use xlink:href="#DejaVuSans-33"/>
      </g>
     </g>
    </g>
    <g id="xtick_5">
     <g id="line2d_5">
      <g>
       <use xlink:href="#me26862e141" x="312.488866" y="224.64" style="stroke: #000000; stroke-width: 0.8"/>
      </g>
     </g>
     <g id="text_5">
      <!-- 4 -->
      <g transform="translate(309.307616 239.238437)scale(0.1 -0.1)">
       <defs>
        <path id="DejaVuSans-34" d="M 2419 4116 
L 825 1625 
L 2419 1625 
L 2419 4116 
z
M 2253 4666 
L 3047 4666 
L 3047 1625 
L 3713 1625 
L 3713 1100 
L 3047 1100 
L 3047 0 
L 2419 0 
L 2419 1100 
L 313 1100 
L 313 1709 
L 2253 4666 
z
" transform="scale(0.015625)"/>
       </defs>
       <use xlink:href="#DejaVuSans-34"/>
      </g>
     </g>
    </g>
    <g id="xtick_6">
     <g id="line2d_6">
      <g>
       <use xlink:href="#me26862e141" x="373.475547" y="224.64" style="stroke: #000000; stroke-width: 0.8"/>
      </g>
     </g>
     <g id="text_6">
      <!-- 5 -->
      <g transform="translate(370.294297 239.238437)scale(0.1 -0.1)">
       <defs>
        <path id="DejaVuSans-35" d="M 691 4666 
L 3169 4666 
L 3169 4134 
L 1269 4134 
L 1269 2991 
Q 1406 3038 1543 3061 
Q 1681 3084 1819 3084 
Q 2600 3084 3056 2656 
Q 3513 2228 3513 1497 
Q 3513 744 3044 326 
Q 2575 -91 1722 -91 
Q 1428 -91 1123 -41 
Q 819 9 494 109 
L 494 744 
Q 775 591 1075 516 
Q 1375 441 1709 441 
Q 2250 441 2565 725 
Q 2881 1009 2881 1497 
Q 2881 1984 2565 2268 
Q 2250 2553 1709 2553 
Q 1456 2553 1204 2497 
Q 953 2441 691 2322 
L 691 4666 
z
" transform="scale(0.015625)"/>
       </defs>
       <use xlink:href="#DejaVuSans-35"/>
      </g>
     </g>
    </g>
    <g id="text_7">
     <!-- Absolute Error -->
     <g transform="translate(185.100781 252.916562)scale(0.1 -0.1)">
      <defs>
       <path id="DejaVuSans-41" d="M 2188 4044 
L 1331 1722 
L 3047 1722 
L 2188 4044 
z
M 1831 4666 
L 2547 4666 
L 4325 0 
L 3669 0 
L 3244 1197 
L 1141 1197 
L 716 0 
L 50 0 
L 1831 4666 
z
" transform="scale(0.015625)"/>
       <path id="DejaVuSans-62" d="M 3116 1747 
Q 3116 2381 2855 2742 
Q 2594 3103 2138 3103 
Q 1681 3103 1420 2742 
Q 1159 2381 1159 1747 
Q 1159 1113 1420 752 
Q 1681 391 2138 391 
Q 2594 391 2855 752 
Q 3116 1113 3116 1747 
z
M 1159 2969 
Q 1341 3281 1617 3432 
Q 1894 3584 2278 3584 
Q 2916 3584 3314 3078 
Q 3713 2572 3713 1747 
Q 3713 922 3314 415 
Q 2916 -91 2278 -91 
Q 1894 -91 1617 61 
Q 1341 213 1159 525 
L 1159 0 
L 581 0 
L 581 4863 
L 1159 4863 
L 1159 2969 
z
" transform="scale(0.015625)"/>
       <path id="DejaVuSans-73" d="M 2834 3397 
L 2834 2853 
Q 2591 2978 2328 3040 
Q 2066 3103 1784 3103 
Q 1356 3103 1142 2972 
Q 928 2841 928 2578 
Q 928 2378 1081 2264 
Q 1234 2150 1697 2047 
L 1894 2003 
Q 2506 1872 2764 1633 
Q 3022 1394 3022 966 
Q 3022 478 2636 193 
Q 2250 -91 1575 -91 
Q 1294 -91 989 -36 
Q 684 19 347 128 
L 347 722 
Q 666 556 975 473 
Q 1284 391 1588 391 
Q 1994 391 2212 530 
Q 2431 669 2431 922 
Q 2431 1156 2273 1281 
Q 2116 1406 1581 1522 
L 1381 1569 
Q 847 1681 609 1914 
Q 372 2147 372 2553 
Q 372 3047 722 3315 
Q 1072 3584 1716 3584 
Q 2034 3584 2315 3537 
Q 2597 3491 2834 3397 
z
" transform="scale(0.015625)"/>
       <path id="DejaVuSans-6f" d="M 1959 3097 
Q 1497 3097 1228 2736 
Q 959 2375 959 1747 
Q 959 1119 1226 758 
Q 1494 397 1959 397 
Q 2419 397 2687 759 
Q 2956 1122 2956 1747 
Q 2956 2369 2687 2733 
Q 2419 3097 1959 3097 
z
M 1959 3584 
Q 2709 3584 3137 3096 
Q 3566 2609 3566 1747 
Q 3566 888 3137 398 
Q 2709 -91 1959 -91 
Q 1206 -91 779 398 
Q 353 888 353 1747 
Q 353 2609 779 3096 
Q 1206 3584 1959 3584 
z
" transform="scale(0.015625)"/>
       <path id="DejaVuSans-6c" d="M 603 4863 
L 1178 4863 
L 1178 0 
L 603 0 
L 603 4863 
z
" transform="scale(0.015625)"/>
       <path id="DejaVuSans-75" d="M 544 1381 
L 544 3500 
L 1119 3500 
L 1119 1403 
Q 1119 906 1312 657 
Q 1506 409 1894 409 
Q 2359 409 2629 706 
Q 2900 1003 2900 1516 
L 2900 3500 
L 3475 3500 
L 3475 0 
L 2900 0 
L 2900 538 
Q 2691 219 2414 64 
Q 2138 -91 1772 -91 
Q 1169 -91 856 284 
Q 544 659 544 1381 
z
M 1991 3584 
L 1991 3584 
z
" transform="scale(0.015625)"/>
       <path id="DejaVuSans-74" d="M 1172 4494 
L 1172 3500 
L 2356 3500 
L 2356 3053 
L 1172 3053 
L 1172 1153 
Q 1172 725 1289 603 
Q 1406 481 1766 481 
L 2356 481 
L 2356 0 
L 1766 0 
Q 1100 0 847 248 
Q 594 497 594 1153 
L 594 3053 
L 172 3053 
L 172 3500 
L 594 3500 
L 594 4494 
L 1172 4494 
z
" transform="scale(0.015625)"/>
       <path id="DejaVuSans-65" d="M 3597 1894 
L 3597 1613 
L 953 1613 
Q 991 1019 1311 708 
Q 1631 397 2203 397 
Q 2534 397 2845 478 
Q 3156 559 3463 722 
L 3463 178 
Q 3153 47 2828 -22 
Q 2503 -91 2169 -91 
Q 1331 -91 842 396 
Q 353 884 353 1716 
Q 353 2575 817 3079 
Q 1281 3584 2069 3584 
Q 2775 3584 3186 3129 
Q 3597 2675 3597 1894 
z
M 3022 2063 
Q 3016 2534 2758 2815 
Q 2500 3097 2075 3097 
Q 1594 3097 1305 2825 
Q 1016 2553 972 2059 
L 3022 2063 
z
" transform="scale(0.015625)"/>
       <path id="DejaVuSans-20" transform="scale(0.015625)"/>
       <path id="DejaVuSans-45" d="M 628 4666 
L 3578 4666 
L 3578 4134 
L 1259 4134 
L 1259 2753 
L 3481 2753 
L 3481 2222 
L 1259 2222 
L 1259 531 
L 3634 531 
L 3634 0 
L 628 0 
L 628 4666 
z
" transform="scale(0.015625)"/>
       <path id="DejaVuSans-72" d="M 2631 2963 
Q 2534 3019 2420 3045 
Q 2306 3072 2169 3072 
Q 1681 3072 1420 2755 
Q 1159 2438 1159 1844 
L 1159 0 
L 581 0 
L 581 3500 
L 1159 3500 
L 1159 2956 
Q 1341 3275 1631 3429 
Q 1922 3584 2338 3584 
Q 2397 3584 2469 3576 
Q 2541 3569 2628 3553 
L 2631 2963 
z
" transform="scale(0.015625)"/>
      </defs>
      <use xlink:href="#DejaVuSans-41"/>
      <use xlink:href="#DejaVuSans-62" x="68.408203"/>
      <use xlink:href="#DejaVuSans-73" x="131.884766"/>
      <use xlink:href="#DejaVuSans-6f" x="183.984375"/>
      <use xlink:href="#DejaVuSans-6c" x="245.166016"/>
      <use xlink:href="#DejaVuSans-75" x="272.949219"/>
      <use xlink:href="#DejaVuSans-74" x="336.328125"/>
      <use xlink:href="#DejaVuSans-65" x="375.537109"/>
      <use xlink:href="#DejaVuSans-20" x="437.060547"/>
      <use xlink:href="#DejaVuSans-45" x="468.847656"/>
      <use xlink:href="#DejaVuSans-72" x="532.03125"/>
      <use xlink:href="#DejaVuSans-72" x="571.394531"/>
      <use xlink:href="#DejaVuSans-6f" x="610.257812"/>
      <use xlink:href="#DejaVuSans-72" x="671.439453"/>
     </g>
    </g>
   </g>
   <g id="matplotlib.axis_2">
    <g id="ytick_1">
     <g id="line2d_7">
      <defs>
       <path id="m05de323f82" d="M 0 0 
L -3.5 0 
" style="stroke: #000000; stroke-width: 0.8"/>
      </defs>
      <g>
       <use xlink:href="#m05de323f82" x="53.328125" y="224.64" style="stroke: #000000; stroke-width: 0.8"/>
      </g>
     </g>
     <g id="text_8">
      <!-- 0 -->
      <g transform="translate(39.965625 228.439219)scale(0.1 -0.1)">
       <use xlink:href="#DejaVuSans-30"/>
      </g>
     </g>
    </g>
    <g id="ytick_2">
     <g id="line2d_8">
      <g>
       <use xlink:href="#m05de323f82" x="53.328125" y="183.616681" style="stroke: #000000; stroke-width: 0.8"/>
      </g>
     </g>
     <g id="text_9">
      <!-- 500 -->
      <g transform="translate(27.240625 187.4159)scale(0.1 -0.1)">
       <use xlink:href="#DejaVuSans-35"/>
       <use xlink:href="#DejaVuSans-30" x="63.623047"/>
       <use xlink:href="#DejaVuSans-30" x="127.246094"/>
      </g>
     </g>
    </g>
    <g id="ytick_3">
     <g id="line2d_9">
      <g>
       <use xlink:href="#m05de323f82" x="53.328125" y="142.593362" style="stroke: #000000; stroke-width: 0.8"/>
      </g>
     </g>
     <g id="text_10">
      <!-- 1000 -->
      <g transform="translate(20.878125 146.392581)scale(0.1 -0.1)">
       <use xlink:href="#DejaVuSans-31"/>
       <use xlink:href="#DejaVuSans-30" x="63.623047"/>
       <use xlink:href="#DejaVuSans-30" x="127.246094"/>
       <use xlink:href="#DejaVuSans-30" x="190.869141"/>
      </g>
     </g>
    </g>
    <g id="ytick_4">
     <g id="line2d_10">
      <g>
       <use xlink:href="#m05de323f82" x="53.328125" y="101.570043" style="stroke: #000000; stroke-width: 0.8"/>
      </g>
     </g>
     <g id="text_11">
      <!-- 1500 -->
      <g transform="translate(20.878125 105.369262)scale(0.1 -0.1)">
       <use xlink:href="#DejaVuSans-31"/>
       <use xlink:href="#DejaVuSans-35" x="63.623047"/>
       <use xlink:href="#DejaVuSans-30" x="127.246094"/>
       <use xlink:href="#DejaVuSans-30" x="190.869141"/>
      </g>
     </g>
    </g>
    <g id="ytick_5">
     <g id="line2d_11">
      <g>
       <use xlink:href="#m05de323f82" x="53.328125" y="60.546724" style="stroke: #000000; stroke-width: 0.8"/>
      </g>
     </g>
     <g id="text_12">
      <!-- 2000 -->
      <g transform="translate(20.878125 64.345943)scale(0.1 -0.1)">
       <use xlink:href="#DejaVuSans-32"/>
       <use xlink:href="#DejaVuSans-30" x="63.623047"/>
       <use xlink:href="#DejaVuSans-30" x="127.246094"/>
       <use xlink:href="#DejaVuSans-30" x="190.869141"/>
      </g>
     </g>
    </g>
    <g id="ytick_6">
     <g id="line2d_12">
      <g>
       <use xlink:href="#m05de323f82" x="53.328125" y="19.523405" style="stroke: #000000; stroke-width: 0.8"/>
      </g>
     </g>
     <g id="text_13">
      <!-- 2500 -->
      <g transform="translate(20.878125 23.322624)scale(0.1 -0.1)">
       <use xlink:href="#DejaVuSans-32"/>
       <use xlink:href="#DejaVuSans-35" x="63.623047"/>
       <use xlink:href="#DejaVuSans-30" x="127.246094"/>
       <use xlink:href="#DejaVuSans-30" x="190.869141"/>
      </g>
     </g>
    </g>
    <g id="text_14">
     <!-- Frequency -->
     <g transform="translate(14.798438 141.749687)rotate(-90)scale(0.1 -0.1)">
      <defs>
       <path id="DejaVuSans-46" d="M 628 4666 
L 3309 4666 
L 3309 4134 
L 1259 4134 
L 1259 2759 
L 3109 2759 
L 3109 2228 
L 1259 2228 
L 1259 0 
L 628 0 
L 628 4666 
z
" transform="scale(0.015625)"/>
       <path id="DejaVuSans-71" d="M 947 1747 
Q 947 1113 1208 752 
Q 1469 391 1925 391 
Q 2381 391 2643 752 
Q 2906 1113 2906 1747 
Q 2906 2381 2643 2742 
Q 2381 3103 1925 3103 
Q 1469 3103 1208 2742 
Q 947 2381 947 1747 
z
M 2906 525 
Q 2725 213 2448 61 
Q 2172 -91 1784 -91 
Q 1150 -91 751 415 
Q 353 922 353 1747 
Q 353 2572 751 3078 
Q 1150 3584 1784 3584 
Q 2172 3584 2448 3432 
Q 2725 3281 2906 2969 
L 2906 3500 
L 3481 3500 
L 3481 -1331 
L 2906 -1331 
L 2906 525 
z
" transform="scale(0.015625)"/>
       <path id="DejaVuSans-6e" d="M 3513 2113 
L 3513 0 
L 2938 0 
L 2938 2094 
Q 2938 2591 2744 2837 
Q 2550 3084 2163 3084 
Q 1697 3084 1428 2787 
Q 1159 2491 1159 1978 
L 1159 0 
L 581 0 
L 581 3500 
L 1159 3500 
L 1159 2956 
Q 1366 3272 1645 3428 
Q 1925 3584 2291 3584 
Q 2894 3584 3203 3211 
Q 3513 2838 3513 2113 
z
" transform="scale(0.015625)"/>
       <path id="DejaVuSans-63" d="M 3122 3366 
L 3122 2828 
Q 2878 2963 2633 3030 
Q 2388 3097 2138 3097 
Q 1578 3097 1268 2742 
Q 959 2388 959 1747 
Q 959 1106 1268 751 
Q 1578 397 2138 397 
Q 2388 397 2633 464 
Q 2878 531 3122 666 
L 3122 134 
Q 2881 22 2623 -34 
Q 2366 -91 2075 -91 
Q 1284 -91 818 406 
Q 353 903 353 1747 
Q 353 2603 823 3093 
Q 1294 3584 2113 3584 
Q 2378 3584 2631 3529 
Q 2884 3475 3122 3366 
z
" transform="scale(0.015625)"/>
       <path id="DejaVuSans-79" d="M 2059 -325 
Q 1816 -950 1584 -1140 
Q 1353 -1331 966 -1331 
L 506 -1331 
L 506 -850 
L 844 -850 
Q 1081 -850 1212 -737 
Q 1344 -625 1503 -206 
L 1606 56 
L 191 3500 
L 800 3500 
L 1894 763 
L 2988 3500 
L 3597 3500 
L 2059 -325 
z
" transform="scale(0.015625)"/>
      </defs>
      <use xlink:href="#DejaVuSans-46"/>
      <use xlink:href="#DejaVuSans-72" x="50.269531"/>
      <use xlink:href="#DejaVuSans-65" x="89.132812"/>
      <use xlink:href="#DejaVuSans-71" x="150.65625"/>
      <use xlink:href="#DejaVuSans-75" x="214.132812"/>
      <use xlink:href="#DejaVuSans-65" x="277.511719"/>
      <use xlink:href="#DejaVuSans-6e" x="339.035156"/>
      <use xlink:href="#DejaVuSans-63" x="402.414062"/>
      <use xlink:href="#DejaVuSans-79" x="457.394531"/>
     </g>
    </g>
   </g>
   <g id="patch_83">
    <path d="M 53.328125 224.64 
L 53.328125 7.2 
" style="fill: none; stroke: #000000; stroke-width: 0.8; stroke-linejoin: miter; stroke-linecap: square"/>
   </g>
   <g id="patch_84">
    <path d="M 388.128125 224.64 
L 388.128125 7.2 
" style="fill: none; stroke: #000000; stroke-width: 0.8; stroke-linejoin: miter; stroke-linecap: square"/>
   </g>
   <g id="patch_85">
    <path d="M 53.328125 224.64 
L 388.128125 224.64 
" style="fill: none; stroke: #000000; stroke-width: 0.8; stroke-linejoin: miter; stroke-linecap: square"/>
   </g>
   <g id="patch_86">
    <path d="M 53.328125 7.2 
L 388.128125 7.2 
" style="fill: none; stroke: #000000; stroke-width: 0.8; stroke-linejoin: miter; stroke-linecap: square"/>
   </g>
  </g>
 </g>
 <defs>
  <clipPath id="p36091c24fd">
   <rect x="53.328125" y="7.2" width="334.8" height="217.44"/>
  </clipPath>
 </defs>
</svg>
