<?xml version="1.0" encoding="utf-8" standalone="no"?>
<!DOCTYPE svg PUBLIC "-//W3C//DTD SVG 1.1//EN"
  "http://www.w3.org/Graphics/SVG/1.1/DTD/svg11.dtd">
<svg height="449.28pt" version="1.1" viewBox="0 0 449.28 449.28" width="449.28pt" xmlns="http://www.w3.org/2000/svg" xmlns:xlink="http://www.w3.org/1999/xlink">
 <metadata>
  <rdf:RDF xmlns:cc="http://creativecommons.org/ns#" xmlns:dc="http://purl.org/dc/elements/1.1/" xmlns:rdf="http://www.w3.org/1999/02/22-rdf-syntax-ns#">
   <cc:Work>
    <dc:type rdf:resource="http://purl.org/dc/dcmitype/StillImage"/>
    <dc:date>2022-07-02T00:47:18.241256</dc:date>
    <dc:format>image/svg+xml</dc:format>
    <dc:creator>
     <cc:Agent>
      <dc:title>Matplotlib v3.4.2, https://matplotlib.org/</dc:title>
     </cc:Agent>
    </dc:creator>
   </cc:Work>
  </rdf:RDF>
 </metadata>
 <defs>
  <style type="text/css">*{stroke-linecap:butt;stroke-linejoin:round;}</style>
 </defs>
 <g id="figure_1">
  <g id="patch_1">
   <path d="M 0 449.28 
L 449.28 449.28 
L 449.28 0 
L 0 0 
z
" style="fill:none;"/>
  </g>
  <g id="patch_2">
   <path d="M 7.2 442.08 
L 442.08 442.08 
L 442.08 7.2 
L 7.2 7.2 
z
" style="fill:#ffffff;"/>
  </g>
  <g id="pane3d_1">
   <g id="patch_3">
    <path d="M 422.654819 335.500773 
L 277.431121 249.212047 
L 278.781226 64.225118 
L 428.739725 134.660601 
" style="fill:#f2f2f2;opacity:0.5;stroke:#f2f2f2;stroke-linejoin:miter;"/>
   </g>
  </g>
  <g id="pane3d_2">
   <g id="patch_4">
    <path d="M 45.9746 297.06135 
L 277.431121 249.212047 
L 278.781226 64.225118 
L 40.368319 103.234552 
" style="fill:#e6e6e6;opacity:0.5;stroke:#e6e6e6;stroke-linejoin:miter;"/>
   </g>
  </g>
  <g id="pane3d_3">
   <g id="patch_5">
    <path d="M 175.966326 393.428405 
L 422.654819 335.500773 
L 277.431121 249.212047 
L 45.9746 297.06135 
" style="fill:#ececec;opacity:0.5;stroke:#ececec;stroke-linejoin:miter;"/>
   </g>
  </g>
  <g id="axis3d_1">
   <g id="line2d_1">
    <path d="M 422.654819 335.500773 
L 175.966326 393.428405 
" style="fill:none;stroke:#000000;stroke-linecap:square;stroke-width:0.8;"/>
   </g>
   <g id="Line3DCollection_1">
    <path d="M 208.165919 385.867265 
L 76.047757 290.844287 
L 71.387264 98.159192 
" style="fill:none;stroke:#b0b0b0;stroke-width:0.8;"/>
    <path d="M 240.019476 378.387382 
L 105.838413 284.685627 
L 102.102457 93.133531 
" style="fill:none;stroke:#b0b0b0;stroke-width:0.8;"/>
    <path d="M 271.410467 371.016119 
L 135.236125 278.6082 
L 132.400454 88.176133 
" style="fill:none;stroke:#b0b0b0;stroke-width:0.8;"/>
    <path d="M 302.348894 363.751127 
L 164.248616 272.610411 
L 162.289697 83.285615 
" style="fill:none;stroke:#b0b0b0;stroke-width:0.8;"/>
    <path d="M 332.844476 356.590125 
L 192.88341 266.690703 
L 191.778403 78.460634 
" style="fill:none;stroke:#b0b0b0;stroke-width:0.8;"/>
    <path d="M 362.906652 349.530896 
L 221.147834 260.847563 
L 220.87457 73.699881 
" style="fill:none;stroke:#b0b0b0;stroke-width:0.8;"/>
    <path d="M 392.544596 342.571285 
L 249.049027 255.079513 
L 249.585984 69.002082 
" style="fill:none;stroke:#b0b0b0;stroke-width:0.8;"/>
   </g>
   <g id="xtick_1">
    <g id="line2d_2">
     <path d="M 207.001662 385.0299 
L 210.500165 387.546119 
" style="fill:none;stroke:#000000;stroke-linecap:square;stroke-width:0.8;"/>
    </g>
    <g id="text_1">
     <!-- −600 -->
     <g transform="translate(201.890627 409.153924)scale(0.1 -0.1)">
      <defs>
       <path d="M 678 2272 
L 4684 2272 
L 4684 1741 
L 678 1741 
L 678 2272 
z
" id="DejaVuSans-2212" transform="scale(0.015625)"/>
       <path d="M 2113 2584 
Q 1688 2584 1439 2293 
Q 1191 2003 1191 1497 
Q 1191 994 1439 701 
Q 1688 409 2113 409 
Q 2538 409 2786 701 
Q 3034 994 3034 1497 
Q 3034 2003 2786 2293 
Q 2538 2584 2113 2584 
z
M 3366 4563 
L 3366 3988 
Q 3128 4100 2886 4159 
Q 2644 4219 2406 4219 
Q 1781 4219 1451 3797 
Q 1122 3375 1075 2522 
Q 1259 2794 1537 2939 
Q 1816 3084 2150 3084 
Q 2853 3084 3261 2657 
Q 3669 2231 3669 1497 
Q 3669 778 3244 343 
Q 2819 -91 2113 -91 
Q 1303 -91 875 529 
Q 447 1150 447 2328 
Q 447 3434 972 4092 
Q 1497 4750 2381 4750 
Q 2619 4750 2861 4703 
Q 3103 4656 3366 4563 
z
" id="DejaVuSans-36" transform="scale(0.015625)"/>
       <path d="M 2034 4250 
Q 1547 4250 1301 3770 
Q 1056 3291 1056 2328 
Q 1056 1369 1301 889 
Q 1547 409 2034 409 
Q 2525 409 2770 889 
Q 3016 1369 3016 2328 
Q 3016 3291 2770 3770 
Q 2525 4250 2034 4250 
z
M 2034 4750 
Q 2819 4750 3233 4129 
Q 3647 3509 3647 2328 
Q 3647 1150 3233 529 
Q 2819 -91 2034 -91 
Q 1250 -91 836 529 
Q 422 1150 422 2328 
Q 422 3509 836 4129 
Q 1250 4750 2034 4750 
z
" id="DejaVuSans-30" transform="scale(0.015625)"/>
      </defs>
      <use xlink:href="#DejaVuSans-2212"/>
      <use x="83.789062" xlink:href="#DejaVuSans-36"/>
      <use x="147.412109" xlink:href="#DejaVuSans-30"/>
      <use x="211.035156" xlink:href="#DejaVuSans-30"/>
     </g>
    </g>
   </g>
   <g id="xtick_2">
    <g id="line2d_3">
     <path d="M 238.837837 377.562216 
L 242.38853 380.041748 
" style="fill:none;stroke:#000000;stroke-linecap:square;stroke-width:0.8;"/>
    </g>
    <g id="text_2">
     <!-- −400 -->
     <g transform="translate(233.802456 401.532353)scale(0.1 -0.1)">
      <defs>
       <path d="M 2419 4116 
L 825 1625 
L 2419 1625 
L 2419 4116 
z
M 2253 4666 
L 3047 4666 
L 3047 1625 
L 3713 1625 
L 3713 1100 
L 3047 1100 
L 3047 0 
L 2419 0 
L 2419 1100 
L 313 1100 
L 313 1709 
L 2253 4666 
z
" id="DejaVuSans-34" transform="scale(0.015625)"/>
      </defs>
      <use xlink:href="#DejaVuSans-2212"/>
      <use x="83.789062" xlink:href="#DejaVuSans-34"/>
      <use x="147.412109" xlink:href="#DejaVuSans-30"/>
      <use x="211.035156" xlink:href="#DejaVuSans-30"/>
     </g>
    </g>
   </g>
   <g id="xtick_3">
    <g id="line2d_4">
     <path d="M 270.212071 370.202888 
L 273.813074 372.646529 
" style="fill:none;stroke:#000000;stroke-linecap:square;stroke-width:0.8;"/>
    </g>
    <g id="text_3">
     <!-- −200 -->
     <g transform="translate(265.249239 394.02185)scale(0.1 -0.1)">
      <defs>
       <path d="M 1228 531 
L 3431 531 
L 3431 0 
L 469 0 
L 469 531 
Q 828 903 1448 1529 
Q 2069 2156 2228 2338 
Q 2531 2678 2651 2914 
Q 2772 3150 2772 3378 
Q 2772 3750 2511 3984 
Q 2250 4219 1831 4219 
Q 1534 4219 1204 4116 
Q 875 4013 500 3803 
L 500 4441 
Q 881 4594 1212 4672 
Q 1544 4750 1819 4750 
Q 2544 4750 2975 4387 
Q 3406 4025 3406 3419 
Q 3406 3131 3298 2873 
Q 3191 2616 2906 2266 
Q 2828 2175 2409 1742 
Q 1991 1309 1228 531 
z
" id="DejaVuSans-32" transform="scale(0.015625)"/>
      </defs>
      <use xlink:href="#DejaVuSans-2212"/>
      <use x="83.789062" xlink:href="#DejaVuSans-32"/>
      <use x="147.412109" xlink:href="#DejaVuSans-30"/>
      <use x="211.035156" xlink:href="#DejaVuSans-30"/>
     </g>
    </g>
   </g>
   <g id="xtick_4">
    <g id="line2d_5">
     <path d="M 301.134346 362.949573 
L 304.783843 365.358097 
" style="fill:none;stroke:#000000;stroke-linecap:square;stroke-width:0.8;"/>
    </g>
    <g id="text_4">
     <!-- 0 -->
     <g transform="translate(306.793414 386.620004)scale(0.1 -0.1)">
      <use xlink:href="#DejaVuSans-30"/>
     </g>
    </g>
   </g>
   <g id="xtick_5">
    <g id="line2d_6">
     <path d="M 331.614358 355.799999 
L 335.310597 358.174157 
" style="fill:none;stroke:#000000;stroke-linecap:square;stroke-width:0.8;"/>
    </g>
    <g id="text_5">
     <!-- 200 -->
     <g transform="translate(330.977594 379.324474)scale(0.1 -0.1)">
      <use xlink:href="#DejaVuSans-32"/>
      <use x="63.623047" xlink:href="#DejaVuSans-30"/>
      <use x="127.246094" xlink:href="#DejaVuSans-30"/>
     </g>
    </g>
   </g>
   <g id="xtick_6">
    <g id="line2d_7">
     <path d="M 361.661527 348.751955 
L 365.402814 351.092478 
" style="fill:none;stroke:#000000;stroke-linecap:square;stroke-width:0.8;"/>
    </g>
    <g id="text_6">
     <!-- 400 -->
     <g transform="translate(361.088647 372.132986)scale(0.1 -0.1)">
      <use xlink:href="#DejaVuSans-34"/>
      <use x="63.623047" xlink:href="#DejaVuSans-30"/>
      <use x="127.246094" xlink:href="#DejaVuSans-30"/>
     </g>
    </g>
   </g>
   <g id="xtick_7">
    <g id="line2d_8">
     <path d="M 391.28501 341.803293 
L 395.069709 344.110891 
" style="fill:none;stroke:#000000;stroke-linecap:square;stroke-width:0.8;"/>
    </g>
    <g id="text_7">
     <!-- 600 -->
     <g transform="translate(390.773323 365.04333)scale(0.1 -0.1)">
      <use xlink:href="#DejaVuSans-36"/>
      <use x="63.623047" xlink:href="#DejaVuSans-30"/>
      <use x="127.246094" xlink:href="#DejaVuSans-30"/>
     </g>
    </g>
   </g>
  </g>
  <g id="axis3d_2">
   <g id="line2d_9">
    <path d="M 45.9746 297.06135 
L 175.966326 393.428405 
" style="fill:none;stroke:#000000;stroke-linecap:square;stroke-width:0.8;"/>
   </g>
   <g id="Line3DCollection_2">
    <path d="M 408.51248 125.159867 
L 403.113743 323.889895 
L 158.394862 380.402112 
" style="fill:none;stroke:#b0b0b0;stroke-width:0.8;"/>
    <path d="M 388.701147 115.854487 
L 383.960138 312.509244 
L 141.196043 367.652073 
" style="fill:none;stroke:#b0b0b0;stroke-width:0.8;"/>
    <path d="M 369.367851 106.773641 
L 365.255009 301.395068 
L 124.423031 355.217699 
" style="fill:none;stroke:#b0b0b0;stroke-width:0.8;"/>
    <path d="M 350.495496 97.909299 
L 346.982787 290.538116 
L 108.060207 343.087411 
" style="fill:none;stroke:#b0b0b0;stroke-width:0.8;"/>
    <path d="M 332.067791 89.253809 
L 329.128616 279.929561 
L 92.092707 331.250188 
" style="fill:none;stroke:#b0b0b0;stroke-width:0.8;"/>
    <path d="M 314.069206 80.799876 
L 311.678312 269.560974 
L 76.506373 319.695537 
" style="fill:none;stroke:#b0b0b0;stroke-width:0.8;"/>
    <path d="M 296.484923 72.540541 
L 294.618323 259.424304 
L 61.28772 308.413459 
" style="fill:none;stroke:#b0b0b0;stroke-width:0.8;"/>
   </g>
   <g id="xtick_8">
    <g id="line2d_10">
     <path d="M 160.466799 379.923646 
L 154.245132 381.360397 
" style="fill:none;stroke:#000000;stroke-linecap:square;stroke-width:0.8;"/>
    </g>
    <g id="text_8">
     <!-- −600 -->
     <g transform="translate(131.605262 401.324059)scale(0.1 -0.1)">
      <use xlink:href="#DejaVuSans-2212"/>
      <use x="83.789062" xlink:href="#DejaVuSans-36"/>
      <use x="147.412109" xlink:href="#DejaVuSans-30"/>
      <use x="211.035156" xlink:href="#DejaVuSans-30"/>
     </g>
    </g>
   </g>
   <g id="xtick_9">
    <g id="line2d_11">
     <path d="M 143.25001 367.185523 
L 137.082375 368.586475 
" style="fill:none;stroke:#000000;stroke-linecap:square;stroke-width:0.8;"/>
    </g>
    <g id="text_9">
     <!-- −400 -->
     <g transform="translate(114.547247 388.389701)scale(0.1 -0.1)">
      <use xlink:href="#DejaVuSans-2212"/>
      <use x="83.789062" xlink:href="#DejaVuSans-34"/>
      <use x="147.412109" xlink:href="#DejaVuSans-30"/>
      <use x="211.035156" xlink:href="#DejaVuSans-30"/>
     </g>
    </g>
   </g>
   <g id="xtick_10">
    <g id="line2d_12">
     <path d="M 126.459279 354.762626 
L 120.344924 356.1291 
" style="fill:none;stroke:#000000;stroke-linecap:square;stroke-width:0.8;"/>
    </g>
    <g id="text_10">
     <!-- −200 -->
     <g transform="translate(97.912113 375.775996)scale(0.1 -0.1)">
      <use xlink:href="#DejaVuSans-2212"/>
      <use x="83.789062" xlink:href="#DejaVuSans-32"/>
      <use x="147.412109" xlink:href="#DejaVuSans-30"/>
      <use x="211.035156" xlink:href="#DejaVuSans-30"/>
     </g>
    </g>
   </g>
   <g id="xtick_11">
    <g id="line2d_13">
     <path d="M 110.078982 342.643396 
L 104.017162 343.97665 
" style="fill:none;stroke:#000000;stroke-linecap:square;stroke-width:0.8;"/>
    </g>
    <g id="text_11">
     <!-- 0 -->
     <g transform="translate(92.23667 363.471166)scale(0.1 -0.1)">
      <use xlink:href="#DejaVuSans-30"/>
     </g>
    </g>
   </g>
   <g id="xtick_12">
    <g id="line2d_14">
     <path d="M 94.094253 330.816833 
L 88.08423 332.118063 
" style="fill:none;stroke:#000000;stroke-linecap:square;stroke-width:0.8;"/>
    </g>
    <g id="text_12">
     <!-- 200 -->
     <g transform="translate(70.038952 351.464002)scale(0.1 -0.1)">
      <use xlink:href="#DejaVuSans-32"/>
      <use x="63.623047" xlink:href="#DejaVuSans-30"/>
      <use x="127.246094" xlink:href="#DejaVuSans-30"/>
     </g>
    </g>
   </g>
   <g id="xtick_13">
    <g id="line2d_15">
     <path d="M 78.490935 319.272463 
L 72.531977 320.542809 
" style="fill:none;stroke:#000000;stroke-linecap:square;stroke-width:0.8;"/>
    </g>
    <g id="text_13">
     <!-- 400 -->
     <g transform="translate(54.582225 339.743832)scale(0.1 -0.1)">
      <use xlink:href="#DejaVuSans-34"/>
      <use x="63.623047" xlink:href="#DejaVuSans-30"/>
      <use x="127.246094" xlink:href="#DejaVuSans-30"/>
     </g>
    </g>
   </g>
   <g id="xtick_14">
    <g id="line2d_16">
     <path d="M 63.255536 308.000304 
L 57.346921 309.240853 
" style="fill:none;stroke:#000000;stroke-linecap:square;stroke-width:0.8;"/>
    </g>
    <g id="text_14">
     <!-- 600 -->
     <g transform="translate(39.490581 328.300489)scale(0.1 -0.1)">
      <use xlink:href="#DejaVuSans-36"/>
      <use x="63.623047" xlink:href="#DejaVuSans-30"/>
      <use x="127.246094" xlink:href="#DejaVuSans-30"/>
     </g>
    </g>
   </g>
  </g>
  <g id="axis3d_3">
   <g id="line2d_17">
    <path d="M 45.9746 297.06135 
L 40.368319 103.234552 
" style="fill:none;stroke:#000000;stroke-linecap:square;stroke-width:0.8;"/>
   </g>
   <g id="Line3DCollection_3">
    <path d="M 45.552502 282.468107 
L 277.532917 235.264314 
L 423.112423 320.396978 
" style="fill:none;stroke:#b0b0b0;stroke-width:0.8;"/>
    <path d="M 44.744393 254.529224 
L 277.727739 208.570383 
L 423.988749 291.472704 
" style="fill:none;stroke:#b0b0b0;stroke-width:0.8;"/>
    <path d="M 43.929192 226.345139 
L 277.924183 181.654306 
L 424.873086 262.28401 
" style="fill:none;stroke:#b0b0b0;stroke-width:0.8;"/>
    <path d="M 43.106804 197.912611 
L 278.122268 154.5133 
L 425.765545 232.827255 
" style="fill:none;stroke:#b0b0b0;stroke-width:0.8;"/>
    <path d="M 42.277135 169.22834 
L 278.322016 127.144532 
L 426.666238 203.09873 
" style="fill:none;stroke:#b0b0b0;stroke-width:0.8;"/>
    <path d="M 41.440088 140.288967 
L 278.523447 99.545123 
L 427.575279 173.094654 
" style="fill:none;stroke:#b0b0b0;stroke-width:0.8;"/>
    <path d="M 40.595563 111.091075 
L 278.726583 71.712146 
L 428.492785 142.81118 
" style="fill:none;stroke:#b0b0b0;stroke-width:0.8;"/>
   </g>
   <g id="xtick_15">
    <g id="line2d_18">
     <path d="M 47.507951 282.070208 
L 41.63652 283.264938 
" style="fill:none;stroke:#000000;stroke-linecap:square;stroke-width:0.8;"/>
    </g>
    <g id="text_15">
     <!-- −300 -->
     <g transform="translate(13.445744 288.220815)scale(0.1 -0.1)">
      <defs>
       <path d="M 2597 2516 
Q 3050 2419 3304 2112 
Q 3559 1806 3559 1356 
Q 3559 666 3084 287 
Q 2609 -91 1734 -91 
Q 1441 -91 1130 -33 
Q 819 25 488 141 
L 488 750 
Q 750 597 1062 519 
Q 1375 441 1716 441 
Q 2309 441 2620 675 
Q 2931 909 2931 1356 
Q 2931 1769 2642 2001 
Q 2353 2234 1838 2234 
L 1294 2234 
L 1294 2753 
L 1863 2753 
Q 2328 2753 2575 2939 
Q 2822 3125 2822 3475 
Q 2822 3834 2567 4026 
Q 2313 4219 1838 4219 
Q 1578 4219 1281 4162 
Q 984 4106 628 3988 
L 628 4550 
Q 988 4650 1302 4700 
Q 1616 4750 1894 4750 
Q 2613 4750 3031 4423 
Q 3450 4097 3450 3541 
Q 3450 3153 3228 2886 
Q 3006 2619 2597 2516 
z
" id="DejaVuSans-33" transform="scale(0.015625)"/>
      </defs>
      <use xlink:href="#DejaVuSans-2212"/>
      <use x="83.789062" xlink:href="#DejaVuSans-33"/>
      <use x="147.412109" xlink:href="#DejaVuSans-30"/>
      <use x="211.035156" xlink:href="#DejaVuSans-30"/>
     </g>
    </g>
   </g>
   <g id="xtick_16">
    <g id="line2d_19">
     <path d="M 46.708733 254.141733 
L 40.810584 255.305216 
" style="fill:none;stroke:#000000;stroke-linecap:square;stroke-width:0.8;"/>
    </g>
    <g id="text_16">
     <!-- −200 -->
     <g transform="translate(12.559153 260.330224)scale(0.1 -0.1)">
      <use xlink:href="#DejaVuSans-2212"/>
      <use x="83.789062" xlink:href="#DejaVuSans-32"/>
      <use x="147.412109" xlink:href="#DejaVuSans-30"/>
      <use x="211.035156" xlink:href="#DejaVuSans-30"/>
     </g>
    </g>
   </g>
   <g id="xtick_17">
    <g id="line2d_20">
     <path d="M 45.902503 225.968255 
L 39.977392 227.099895 
" style="fill:none;stroke:#000000;stroke-linecap:square;stroke-width:0.8;"/>
    </g>
    <g id="text_17">
     <!-- −100 -->
     <g transform="translate(11.664798 232.195351)scale(0.1 -0.1)">
      <defs>
       <path d="M 794 531 
L 1825 531 
L 1825 4091 
L 703 3866 
L 703 4441 
L 1819 4666 
L 2450 4666 
L 2450 531 
L 3481 531 
L 3481 0 
L 794 0 
L 794 531 
z
" id="DejaVuSans-31" transform="scale(0.015625)"/>
      </defs>
      <use xlink:href="#DejaVuSans-2212"/>
      <use x="83.789062" xlink:href="#DejaVuSans-31"/>
      <use x="147.412109" xlink:href="#DejaVuSans-30"/>
      <use x="211.035156" xlink:href="#DejaVuSans-30"/>
     </g>
    </g>
   </g>
   <g id="xtick_18">
    <g id="line2d_21">
     <path d="M 45.08917 197.546536 
L 39.13685 198.645726 
" style="fill:none;stroke:#000000;stroke-linecap:square;stroke-width:0.8;"/>
    </g>
    <g id="text_18">
     <!-- 0 -->
     <g transform="translate(21.314919 203.812972)scale(0.1 -0.1)">
      <use xlink:href="#DejaVuSans-30"/>
     </g>
    </g>
   </g>
   <g id="xtick_19">
    <g id="line2d_22">
     <path d="M 44.268639 168.87328 
L 38.288858 169.939399 
" style="fill:none;stroke:#000000;stroke-linecap:square;stroke-width:0.8;"/>
    </g>
    <g id="text_19">
     <!-- 100 -->
     <g transform="translate(14.042224 175.179808)scale(0.1 -0.1)">
      <use xlink:href="#DejaVuSans-31"/>
      <use x="63.623047" xlink:href="#DejaVuSans-30"/>
      <use x="127.246094" xlink:href="#DejaVuSans-30"/>
     </g>
    </g>
   </g>
   <g id="xtick_20">
    <g id="line2d_23">
     <path d="M 43.440813 139.945134 
L 37.433319 140.977549 
" style="fill:none;stroke:#000000;stroke-linecap:square;stroke-width:0.8;"/>
    </g>
    <g id="text_20">
     <!-- 200 -->
     <g transform="translate(13.12395 146.29252)scale(0.1 -0.1)">
      <use xlink:href="#DejaVuSans-32"/>
      <use x="63.623047" xlink:href="#DejaVuSans-30"/>
      <use x="127.246094" xlink:href="#DejaVuSans-30"/>
     </g>
    </g>
   </g>
   <g id="xtick_21">
    <g id="line2d_24">
     <path d="M 42.605596 110.758683 
L 36.570129 111.756747 
" style="fill:none;stroke:#000000;stroke-linecap:square;stroke-width:0.8;"/>
    </g>
    <g id="text_21">
     <!-- 300 -->
     <g transform="translate(12.197491 117.14771)scale(0.1 -0.1)">
      <use xlink:href="#DejaVuSans-33"/>
      <use x="63.623047" xlink:href="#DejaVuSans-30"/>
      <use x="127.246094" xlink:href="#DejaVuSans-30"/>
     </g>
    </g>
   </g>
  </g>
  <g id="axes_1">
   <g id="line2d_25">
    <path clip-path="url(#pd9a68584d5)" d="M 363.633423 192.628685 
L 341.971201 185.509513 
" style="fill:none;stroke:#000000;stroke-linecap:square;stroke-width:1.5;"/>
   </g>
   <g id="line2d_26">
    <path clip-path="url(#pd9a68584d5)" d="M 341.971201 185.509513 
L 320.161121 178.019083 
" style="fill:none;stroke:#000000;stroke-linecap:square;stroke-width:1.5;"/>
   </g>
   <g id="line2d_27">
    <path clip-path="url(#pd9a68584d5)" d="M 320.161121 178.019083 
L 312.823845 143.221899 
" style="fill:none;stroke:#000000;stroke-linecap:square;stroke-width:1.5;"/>
   </g>
   <g id="line2d_28">
    <path clip-path="url(#pd9a68584d5)" d="M 320.161121 178.019083 
L 303.534202 205.171829 
" style="fill:none;stroke:#000000;stroke-linecap:square;stroke-width:1.5;"/>
   </g>
   <g id="line2d_29">
    <path clip-path="url(#pd9a68584d5)" d="M 312.823845 143.221899 
L 290.245515 137.791094 
" style="fill:none;stroke:#000000;stroke-linecap:square;stroke-width:1.5;"/>
   </g>
   <g id="line2d_30">
    <path clip-path="url(#pd9a68584d5)" d="M 312.823845 143.221899 
L 325.061534 121.856622 
" style="fill:none;stroke:#000000;stroke-linecap:square;stroke-width:1.5;"/>
   </g>
   <g id="line2d_31">
    <path clip-path="url(#pd9a68584d5)" d="M 290.245515 137.791094 
L 274.450192 164.663064 
" style="fill:none;stroke:#000000;stroke-linecap:square;stroke-width:1.5;"/>
   </g>
   <g id="line2d_32">
    <path clip-path="url(#pd9a68584d5)" d="M 290.245515 137.791094 
L 285.28123 110.626072 
" style="fill:none;stroke:#000000;stroke-linecap:square;stroke-width:1.5;"/>
   </g>
   <g id="line2d_33">
    <path clip-path="url(#pd9a68584d5)" d="M 274.450192 164.663064 
L 281.382092 199.327099 
" style="fill:none;stroke:#000000;stroke-linecap:square;stroke-width:1.5;"/>
   </g>
   <g id="line2d_34">
    <path clip-path="url(#pd9a68584d5)" d="M 274.450192 164.663064 
L 256.786839 160.611107 
" style="fill:none;stroke:#000000;stroke-linecap:square;stroke-width:1.5;"/>
   </g>
   <g id="line2d_35">
    <path clip-path="url(#pd9a68584d5)" d="M 281.382092 199.327099 
L 265.578691 229.536436 
" style="fill:none;stroke:#000000;stroke-linecap:square;stroke-width:1.5;"/>
   </g>
   <g id="line2d_36">
    <path clip-path="url(#pd9a68584d5)" d="M 281.382092 199.327099 
L 303.534202 205.171829 
" style="fill:none;stroke:#000000;stroke-linecap:square;stroke-width:1.5;"/>
   </g>
   <g id="line2d_37">
    <path clip-path="url(#pd9a68584d5)" d="M 265.578691 229.536436 
L 251.449387 241.060812 
" style="fill:none;stroke:#000000;stroke-linecap:square;stroke-width:1.5;"/>
   </g>
   <g id="line2d_38">
    <path clip-path="url(#pd9a68584d5)" d="M 265.578691 229.536436 
L 267.115338 245.8883 
" style="fill:none;stroke:#000000;stroke-linecap:square;stroke-width:1.5;"/>
   </g>
   <g id="line2d_39">
    <path clip-path="url(#pd9a68584d5)" d="M 267.115338 245.8883 
L 253.246926 275.712115 
" style="fill:none;stroke:#000000;stroke-linecap:square;stroke-width:1.5;"/>
   </g>
   <g id="line2d_40">
    <path clip-path="url(#pd9a68584d5)" d="M 267.115338 245.8883 
L 280.043815 232.739218 
" style="fill:none;stroke:#000000;stroke-linecap:square;stroke-width:1.5;"/>
   </g>
   <g id="line2d_41">
    <path clip-path="url(#pd9a68584d5)" d="M 253.246926 275.712115 
L 230.07133 259.675696 
" style="fill:none;stroke:#000000;stroke-linecap:square;stroke-width:1.5;"/>
   </g>
   <g id="line2d_42">
    <path clip-path="url(#pd9a68584d5)" d="M 253.246926 275.712115 
L 261.456649 284.081734 
" style="fill:none;stroke:#000000;stroke-linecap:square;stroke-width:1.5;"/>
   </g>
   <g id="line2d_43">
    <path clip-path="url(#pd9a68584d5)" d="M 253.246926 275.712115 
L 252.85191 302.574692 
" style="fill:none;stroke:#000000;stroke-linecap:square;stroke-width:1.5;"/>
   </g>
   <g id="line2d_44">
    <path clip-path="url(#pd9a68584d5)" d="M 230.07133 259.675696 
L 210.779244 276.617653 
" style="fill:none;stroke:#000000;stroke-linecap:square;stroke-width:1.5;"/>
   </g>
   <g id="line2d_45">
    <path clip-path="url(#pd9a68584d5)" d="M 230.07133 259.675696 
L 229.485852 222.172606 
" style="fill:none;stroke:#000000;stroke-linecap:square;stroke-width:1.5;"/>
   </g>
   <g id="line2d_46">
    <path clip-path="url(#pd9a68584d5)" d="M 210.779244 276.617653 
L 188.80115 260.526207 
" style="fill:none;stroke:#000000;stroke-linecap:square;stroke-width:1.5;"/>
   </g>
   <g id="line2d_47">
    <path clip-path="url(#pd9a68584d5)" d="M 210.779244 276.617653 
L 210.466888 305.854799 
" style="fill:none;stroke:#000000;stroke-linecap:square;stroke-width:1.5;"/>
   </g>
   <g id="line2d_48">
    <path clip-path="url(#pd9a68584d5)" d="M 188.80115 260.526207 
L 188.299625 223.128563 
" style="fill:none;stroke:#000000;stroke-linecap:square;stroke-width:1.5;"/>
   </g>
   <g id="line2d_49">
    <path clip-path="url(#pd9a68584d5)" d="M 188.80115 260.526207 
L 174.190229 275.446821 
" style="fill:none;stroke:#000000;stroke-linecap:square;stroke-width:1.5;"/>
   </g>
   <g id="line2d_50">
    <path clip-path="url(#pd9a68584d5)" d="M 188.299625 223.128563 
L 166.547055 202.013675 
" style="fill:none;stroke:#000000;stroke-linecap:square;stroke-width:1.5;"/>
   </g>
   <g id="line2d_51">
    <path clip-path="url(#pd9a68584d5)" d="M 188.299625 223.128563 
L 208.892353 205.119404 
" style="fill:none;stroke:#000000;stroke-linecap:square;stroke-width:1.5;"/>
   </g>
   <g id="line2d_52">
    <path clip-path="url(#pd9a68584d5)" d="M 166.547055 202.013675 
L 151.03389 218.322007 
" style="fill:none;stroke:#000000;stroke-linecap:square;stroke-width:1.5;"/>
   </g>
   <g id="line2d_53">
    <path clip-path="url(#pd9a68584d5)" d="M 166.547055 202.013675 
L 158.343541 190.913797 
" style="fill:none;stroke:#000000;stroke-linecap:square;stroke-width:1.5;"/>
   </g>
   <g id="line2d_54">
    <path clip-path="url(#pd9a68584d5)" d="M 166.547055 202.013675 
L 171.644297 171.872317 
" style="fill:none;stroke:#000000;stroke-linecap:square;stroke-width:1.5;"/>
   </g>
   <g id="line2d_55">
    <path clip-path="url(#pd9a68584d5)" d="M 151.03389 218.322007 
L 150.742901 209.691984 
" style="fill:none;stroke:#000000;stroke-linecap:square;stroke-width:1.5;"/>
   </g>
   <g id="line2d_56">
    <path clip-path="url(#pd9a68584d5)" d="M 151.03389 218.322007 
L 134.317301 242.401437 
" style="fill:none;stroke:#000000;stroke-linecap:square;stroke-width:1.5;"/>
   </g>
   <g id="line2d_57">
    <path clip-path="url(#pd9a68584d5)" d="M 150.742901 209.691984 
L 133.103941 229.518789 
" style="fill:none;stroke:#000000;stroke-linecap:square;stroke-width:1.5;"/>
   </g>
   <g id="line2d_58">
    <path clip-path="url(#pd9a68584d5)" d="M 150.742901 209.691984 
L 162.919641 190.008635 
" style="fill:none;stroke:#000000;stroke-linecap:square;stroke-width:1.5;"/>
   </g>
   <g id="line2d_59">
    <path clip-path="url(#pd9a68584d5)" d="M 133.103941 229.518789 
L 122.531656 251.029627 
" style="fill:none;stroke:#000000;stroke-linecap:square;stroke-width:1.5;"/>
   </g>
   <g id="line2d_60">
    <path clip-path="url(#pd9a68584d5)" d="M 133.103941 229.518789 
L 127.38964 229.875856 
" style="fill:none;stroke:#000000;stroke-linecap:square;stroke-width:1.5;"/>
   </g>
   <g id="line2d_61">
    <path clip-path="url(#pd9a68584d5)" d="M 122.531656 251.029627 
L 134.317301 242.401437 
" style="fill:none;stroke:#000000;stroke-linecap:square;stroke-width:1.5;"/>
   </g>
   <g id="line2d_62">
    <path clip-path="url(#pd9a68584d5)" d="M 122.531656 251.029627 
L 107.999329 269.238398 
" style="fill:none;stroke:#000000;stroke-linecap:square;stroke-width:1.5;"/>
   </g>
   <g id="line2d_63">
    <path clip-path="url(#pd9a68584d5)" d="M 208.892353 205.119404 
L 229.485852 222.172606 
" style="fill:none;stroke:#000000;stroke-linecap:square;stroke-width:1.5;"/>
   </g>
   <g id="line2d_64">
    <path clip-path="url(#pd9a68584d5)" d="M 208.892353 205.119404 
L 208.46225 174.939037 
" style="fill:none;stroke:#000000;stroke-linecap:square;stroke-width:1.5;"/>
   </g>
   <g id="line2d_65">
    <path clip-path="url(#pd9a68584d5)" d="M 229.485852 222.172606 
L 245.397318 207.499971 
" style="fill:none;stroke:#000000;stroke-linecap:square;stroke-width:1.5;"/>
   </g>
   <g id="line2d_66">
    <path clip-path="url(#pd9a68584d5)" d="M 303.534202 205.171829 
L 310.077428 231.936236 
" style="fill:none;stroke:#000000;stroke-linecap:square;stroke-width:1.5;"/>
   </g>
   <g id="Path3DCollection_1">
    <defs>
     <path d="M 0 2.236068 
C 0.593012 2.236068 1.161816 2.000462 1.581139 1.581139 
C 2.000462 1.161816 2.236068 0.593012 2.236068 -0 
C 2.236068 -0.593012 2.000462 -1.161816 1.581139 -1.581139 
C 1.161816 -2.000462 0.593012 -2.236068 0 -2.236068 
C -0.593012 -2.236068 -1.161816 -2.000462 -1.581139 -1.581139 
C -2.000462 -1.161816 -2.236068 -0.593012 -2.236068 0 
C -2.236068 0.593012 -2.000462 1.161816 -1.581139 1.581139 
C -1.161816 2.000462 -0.593012 2.236068 0 2.236068 
z
" id="C0_0_884d774f4a"/>
    </defs>
    <g clip-path="url(#pd9a68584d5)">
     <use style="fill:#fcffa4;fill-opacity:0.3;stroke:#fcffa4;stroke-opacity:0.3;" x="251.449387" xlink:href="#C0_0_884d774f4a" y="241.060812"/>
    </g>
    <g clip-path="url(#pd9a68584d5)">
     <use style="fill:#000004;fill-opacity:0.375562;stroke:#000004;stroke-opacity:0.375562;" x="256.786839" xlink:href="#C0_0_884d774f4a" y="160.611107"/>
    </g>
    <g clip-path="url(#pd9a68584d5)">
     <use style="fill:#000004;fill-opacity:0.379273;stroke:#000004;stroke-opacity:0.379273;" x="285.28123" xlink:href="#C0_0_884d774f4a" y="110.626072"/>
    </g>
    <g clip-path="url(#pd9a68584d5)">
     <use style="fill:#f57d15;fill-opacity:0.380093;stroke:#f57d15;stroke-opacity:0.380093;" x="274.450192" xlink:href="#C0_0_884d774f4a" y="164.663064"/>
    </g>
    <g clip-path="url(#pd9a68584d5)">
     <use style="fill:#f57d15;fill-opacity:0.380434;stroke:#f57d15;stroke-opacity:0.380434;" x="265.578691" xlink:href="#C0_0_884d774f4a" y="229.536436"/>
    </g>
    <g clip-path="url(#pd9a68584d5)">
     <use style="fill:#f57d15;fill-opacity:0.382343;stroke:#f57d15;stroke-opacity:0.382343;" x="290.245515" xlink:href="#C0_0_884d774f4a" y="137.791094"/>
    </g>
    <g clip-path="url(#pd9a68584d5)">
     <use style="fill:#f57d15;fill-opacity:0.385108;stroke:#f57d15;stroke-opacity:0.385108;" x="281.382092" xlink:href="#C0_0_884d774f4a" y="199.327099"/>
    </g>
    <g clip-path="url(#pd9a68584d5)">
     <use style="fill:#f57d15;fill-opacity:0.389044;stroke:#f57d15;stroke-opacity:0.389044;" x="312.823845" xlink:href="#C0_0_884d774f4a" y="143.221899"/>
    </g>
    <g clip-path="url(#pd9a68584d5)">
     <use style="fill:#f57d15;fill-opacity:0.391584;stroke:#f57d15;stroke-opacity:0.391584;" x="303.534202" xlink:href="#C0_0_884d774f4a" y="205.171829"/>
    </g>
    <g clip-path="url(#pd9a68584d5)">
     <use style="fill:#000004;fill-opacity:0.391944;stroke:#000004;stroke-opacity:0.391944;" x="325.061534" xlink:href="#C0_0_884d774f4a" y="121.856622"/>
    </g>
    <g clip-path="url(#pd9a68584d5)">
     <use style="fill:#f57d15;fill-opacity:0.393735;stroke:#f57d15;stroke-opacity:0.393735;" x="320.161121" xlink:href="#C0_0_884d774f4a" y="178.019083"/>
    </g>
    <g clip-path="url(#pd9a68584d5)">
     <use style="fill:#000004;fill-opacity:0.396378;stroke:#000004;stroke-opacity:0.396378;" x="310.077428" xlink:href="#C0_0_884d774f4a" y="231.936236"/>
    </g>
    <g clip-path="url(#pd9a68584d5)">
     <use style="fill:#f57d15;fill-opacity:0.400783;stroke:#f57d15;stroke-opacity:0.400783;" x="341.971201" xlink:href="#C0_0_884d774f4a" y="185.509513"/>
    </g>
    <g clip-path="url(#pd9a68584d5)">
     <use style="fill:#fac228;fill-opacity:0.406386;stroke:#fac228;stroke-opacity:0.406386;" x="363.633423" xlink:href="#C0_0_884d774f4a" y="192.628685"/>
    </g>
    <g clip-path="url(#pd9a68584d5)">
     <use style="fill:#000004;fill-opacity:0.406517;stroke:#000004;stroke-opacity:0.406517;" x="252.85191" xlink:href="#C0_0_884d774f4a" y="302.574692"/>
    </g>
    <g clip-path="url(#pd9a68584d5)">
     <use style="fill:#000004;fill-opacity:0.416717;stroke:#000004;stroke-opacity:0.416717;" x="210.466888" xlink:href="#C0_0_884d774f4a" y="305.854799"/>
    </g>
    <g clip-path="url(#pd9a68584d5)">
     <use style="fill:#fac228;fill-opacity:0.475624;stroke:#fac228;stroke-opacity:0.475624;" x="267.115338" xlink:href="#C0_0_884d774f4a" y="245.8883"/>
    </g>
    <g clip-path="url(#pd9a68584d5)">
     <use style="fill:#f57d15;fill-opacity:0.483841;stroke:#f57d15;stroke-opacity:0.483841;" x="253.246926" xlink:href="#C0_0_884d774f4a" y="275.712115"/>
    </g>
    <g clip-path="url(#pd9a68584d5)">
     <use style="fill:#f57d15;fill-opacity:0.48665;stroke:#f57d15;stroke-opacity:0.48665;" x="210.779244" xlink:href="#C0_0_884d774f4a" y="276.617653"/>
    </g>
    <g clip-path="url(#pd9a68584d5)">
     <use style="fill:#000004;fill-opacity:0.490105;stroke:#000004;stroke-opacity:0.490105;" x="174.190229" xlink:href="#C0_0_884d774f4a" y="275.446821"/>
    </g>
    <g clip-path="url(#pd9a68584d5)">
     <use style="fill:#f57d15;fill-opacity:0.5254;stroke:#f57d15;stroke-opacity:0.5254;" x="188.80115" xlink:href="#C0_0_884d774f4a" y="260.526207"/>
    </g>
    <g clip-path="url(#pd9a68584d5)">
     <use style="fill:#f57d15;fill-opacity:0.52695;stroke:#f57d15;stroke-opacity:0.52695;" x="230.07133" xlink:href="#C0_0_884d774f4a" y="259.675696"/>
    </g>
    <g clip-path="url(#pd9a68584d5)">
     <use style="fill:#000004;fill-opacity:0.543692;stroke:#000004;stroke-opacity:0.543692;" x="280.043815" xlink:href="#C0_0_884d774f4a" y="232.739218"/>
    </g>
    <g clip-path="url(#pd9a68584d5)">
     <use style="fill:#000004;fill-opacity:0.56316;stroke:#000004;stroke-opacity:0.56316;" x="261.456649" xlink:href="#C0_0_884d774f4a" y="284.081734"/>
    </g>
    <g clip-path="url(#pd9a68584d5)">
     <use style="fill:#000004;fill-opacity:0.596543;stroke:#000004;stroke-opacity:0.596543;" x="158.343541" xlink:href="#C0_0_884d774f4a" y="190.913797"/>
    </g>
    <g clip-path="url(#pd9a68584d5)">
     <use style="fill:#f57d15;fill-opacity:0.6154;stroke:#f57d15;stroke-opacity:0.6154;" x="188.299625" xlink:href="#C0_0_884d774f4a" y="223.128563"/>
    </g>
    <g clip-path="url(#pd9a68584d5)">
     <use style="fill:#f57d15;fill-opacity:0.616893;stroke:#f57d15;stroke-opacity:0.616893;" x="229.485852" xlink:href="#C0_0_884d774f4a" y="222.172606"/>
    </g>
    <g clip-path="url(#pd9a68584d5)">
     <use style="fill:#000004;fill-opacity:0.650577;stroke:#000004;stroke-opacity:0.650577;" x="245.397318" xlink:href="#C0_0_884d774f4a" y="207.499971"/>
    </g>
    <g clip-path="url(#pd9a68584d5)">
     <use style="fill:#f57d15;fill-opacity:0.658302;stroke:#f57d15;stroke-opacity:0.658302;" x="208.892353" xlink:href="#C0_0_884d774f4a" y="205.119404"/>
    </g>
    <g clip-path="url(#pd9a68584d5)">
     <use style="fill:#f57d15;fill-opacity:0.663061;stroke:#f57d15;stroke-opacity:0.663061;" x="166.547055" xlink:href="#C0_0_884d774f4a" y="202.013675"/>
    </g>
    <g clip-path="url(#pd9a68584d5)">
     <use style="fill:#fac228;fill-opacity:0.688806;stroke:#fac228;stroke-opacity:0.688806;" x="134.317301" xlink:href="#C0_0_884d774f4a" y="242.401437"/>
    </g>
    <g clip-path="url(#pd9a68584d5)">
     <use style="fill:#000004;fill-opacity:0.729513;stroke:#000004;stroke-opacity:0.729513;" x="208.46225" xlink:href="#C0_0_884d774f4a" y="174.939037"/>
    </g>
    <g clip-path="url(#pd9a68584d5)">
     <use style="fill:#fac228;fill-opacity:0.732221;stroke:#fac228;stroke-opacity:0.732221;" x="151.03389" xlink:href="#C0_0_884d774f4a" y="218.322007"/>
    </g>
    <g clip-path="url(#pd9a68584d5)">
     <use style="fill:#000004;fill-opacity:0.744438;stroke:#000004;stroke-opacity:0.744438;" x="171.644297" xlink:href="#C0_0_884d774f4a" y="171.872317"/>
    </g>
    <g clip-path="url(#pd9a68584d5)">
     <use style="fill:#000004;fill-opacity:0.780814;stroke:#000004;stroke-opacity:0.780814;" x="107.999329" xlink:href="#C0_0_884d774f4a" y="269.238398"/>
    </g>
    <g clip-path="url(#pd9a68584d5)">
     <use style="fill:#f57d15;fill-opacity:0.781418;stroke:#f57d15;stroke-opacity:0.781418;" x="122.531656" xlink:href="#C0_0_884d774f4a" y="251.029627"/>
    </g>
    <g clip-path="url(#pd9a68584d5)">
     <use style="fill:#f57d15;fill-opacity:0.866178;stroke:#f57d15;stroke-opacity:0.866178;" x="150.742901" xlink:href="#C0_0_884d774f4a" y="209.691984"/>
    </g>
    <g clip-path="url(#pd9a68584d5)">
     <use style="fill:#f57d15;fill-opacity:0.901359;stroke:#f57d15;stroke-opacity:0.901359;" x="133.103941" xlink:href="#C0_0_884d774f4a" y="229.518789"/>
    </g>
    <g clip-path="url(#pd9a68584d5)">
     <use style="fill:#000004;fill-opacity:0.93018;stroke:#000004;stroke-opacity:0.93018;" x="162.919641" xlink:href="#C0_0_884d774f4a" y="190.008635"/>
    </g>
    <g clip-path="url(#pd9a68584d5)">
     <use style="fill:#000004;stroke:#000004;" x="127.38964" xlink:href="#C0_0_884d774f4a" y="229.875856"/>
    </g>
   </g>
   <g id="text_22">
    <!--  N -->
    <g transform="translate(363.633423 192.628685)scale(0.1 -0.1)">
     <defs>
      <path id="DejaVuSans-20" transform="scale(0.015625)"/>
      <path d="M 628 4666 
L 1478 4666 
L 3547 763 
L 3547 4666 
L 4159 4666 
L 4159 0 
L 3309 0 
L 1241 3903 
L 1241 0 
L 628 0 
L 628 4666 
z
" id="DejaVuSans-4e" transform="scale(0.015625)"/>
     </defs>
     <use xlink:href="#DejaVuSans-20"/>
     <use x="31.787109" xlink:href="#DejaVuSans-4e"/>
    </g>
   </g>
   <g id="text_23">
    <!--  C -->
    <g transform="translate(341.971201 185.509513)scale(0.1 -0.1)">
     <defs>
      <path d="M 4122 4306 
L 4122 3641 
Q 3803 3938 3442 4084 
Q 3081 4231 2675 4231 
Q 1875 4231 1450 3742 
Q 1025 3253 1025 2328 
Q 1025 1406 1450 917 
Q 1875 428 2675 428 
Q 3081 428 3442 575 
Q 3803 722 4122 1019 
L 4122 359 
Q 3791 134 3420 21 
Q 3050 -91 2638 -91 
Q 1578 -91 968 557 
Q 359 1206 359 2328 
Q 359 3453 968 4101 
Q 1578 4750 2638 4750 
Q 3056 4750 3426 4639 
Q 3797 4528 4122 4306 
z
" id="DejaVuSans-43" transform="scale(0.015625)"/>
     </defs>
     <use xlink:href="#DejaVuSans-20"/>
     <use x="31.787109" xlink:href="#DejaVuSans-43"/>
    </g>
   </g>
   <g id="text_24">
    <!--  C -->
    <g transform="translate(320.161121 178.019083)scale(0.1 -0.1)">
     <use xlink:href="#DejaVuSans-20"/>
     <use x="31.787109" xlink:href="#DejaVuSans-43"/>
    </g>
   </g>
   <g id="text_25">
    <!--  C -->
    <g transform="translate(312.823845 143.221899)scale(0.1 -0.1)">
     <use xlink:href="#DejaVuSans-20"/>
     <use x="31.787109" xlink:href="#DejaVuSans-43"/>
    </g>
   </g>
   <g id="text_26">
    <!--  C -->
    <g transform="translate(290.245515 137.791094)scale(0.1 -0.1)">
     <use xlink:href="#DejaVuSans-20"/>
     <use x="31.787109" xlink:href="#DejaVuSans-43"/>
    </g>
   </g>
   <g id="text_27">
    <!--  C -->
    <g transform="translate(274.450192 164.663064)scale(0.1 -0.1)">
     <use xlink:href="#DejaVuSans-20"/>
     <use x="31.787109" xlink:href="#DejaVuSans-43"/>
    </g>
   </g>
   <g id="text_28">
    <!--  C -->
    <g transform="translate(281.382092 199.327099)scale(0.1 -0.1)">
     <use xlink:href="#DejaVuSans-20"/>
     <use x="31.787109" xlink:href="#DejaVuSans-43"/>
    </g>
   </g>
   <g id="text_29">
    <!--  C -->
    <g transform="translate(265.578691 229.536436)scale(0.1 -0.1)">
     <use xlink:href="#DejaVuSans-20"/>
     <use x="31.787109" xlink:href="#DejaVuSans-43"/>
    </g>
   </g>
   <g id="text_30">
    <!--  O -->
    <g transform="translate(251.449387 241.060812)scale(0.1 -0.1)">
     <defs>
      <path d="M 2522 4238 
Q 1834 4238 1429 3725 
Q 1025 3213 1025 2328 
Q 1025 1447 1429 934 
Q 1834 422 2522 422 
Q 3209 422 3611 934 
Q 4013 1447 4013 2328 
Q 4013 3213 3611 3725 
Q 3209 4238 2522 4238 
z
M 2522 4750 
Q 3503 4750 4090 4092 
Q 4678 3434 4678 2328 
Q 4678 1225 4090 567 
Q 3503 -91 2522 -91 
Q 1538 -91 948 565 
Q 359 1222 359 2328 
Q 359 3434 948 4092 
Q 1538 4750 2522 4750 
z
" id="DejaVuSans-4f" transform="scale(0.015625)"/>
     </defs>
     <use xlink:href="#DejaVuSans-20"/>
     <use x="31.787109" xlink:href="#DejaVuSans-4f"/>
    </g>
   </g>
   <g id="text_31">
    <!--  N -->
    <g transform="translate(267.115338 245.8883)scale(0.1 -0.1)">
     <use xlink:href="#DejaVuSans-20"/>
     <use x="31.787109" xlink:href="#DejaVuSans-4e"/>
    </g>
   </g>
   <g id="text_32">
    <!--  C -->
    <g transform="translate(253.246926 275.712115)scale(0.1 -0.1)">
     <use xlink:href="#DejaVuSans-20"/>
     <use x="31.787109" xlink:href="#DejaVuSans-43"/>
    </g>
   </g>
   <g id="text_33">
    <!--  C -->
    <g transform="translate(230.07133 259.675696)scale(0.1 -0.1)">
     <use xlink:href="#DejaVuSans-20"/>
     <use x="31.787109" xlink:href="#DejaVuSans-43"/>
    </g>
   </g>
   <g id="text_34">
    <!--  C -->
    <g transform="translate(210.779244 276.617653)scale(0.1 -0.1)">
     <use xlink:href="#DejaVuSans-20"/>
     <use x="31.787109" xlink:href="#DejaVuSans-43"/>
    </g>
   </g>
   <g id="text_35">
    <!--  C -->
    <g transform="translate(188.80115 260.526207)scale(0.1 -0.1)">
     <use xlink:href="#DejaVuSans-20"/>
     <use x="31.787109" xlink:href="#DejaVuSans-43"/>
    </g>
   </g>
   <g id="text_36">
    <!--  C -->
    <g transform="translate(188.299625 223.128563)scale(0.1 -0.1)">
     <use xlink:href="#DejaVuSans-20"/>
     <use x="31.787109" xlink:href="#DejaVuSans-43"/>
    </g>
   </g>
   <g id="text_37">
    <!--  C -->
    <g transform="translate(166.547055 202.013675)scale(0.1 -0.1)">
     <use xlink:href="#DejaVuSans-20"/>
     <use x="31.787109" xlink:href="#DejaVuSans-43"/>
    </g>
   </g>
   <g id="text_38">
    <!--  N -->
    <g transform="translate(151.03389 218.322007)scale(0.1 -0.1)">
     <use xlink:href="#DejaVuSans-20"/>
     <use x="31.787109" xlink:href="#DejaVuSans-4e"/>
    </g>
   </g>
   <g id="text_39">
    <!--  C -->
    <g transform="translate(150.742901 209.691984)scale(0.1 -0.1)">
     <use xlink:href="#DejaVuSans-20"/>
     <use x="31.787109" xlink:href="#DejaVuSans-43"/>
    </g>
   </g>
   <g id="text_40">
    <!--  C -->
    <g transform="translate(133.103941 229.518789)scale(0.1 -0.1)">
     <use xlink:href="#DejaVuSans-20"/>
     <use x="31.787109" xlink:href="#DejaVuSans-43"/>
    </g>
   </g>
   <g id="text_41">
    <!--  C -->
    <g transform="translate(122.531656 251.029627)scale(0.1 -0.1)">
     <use xlink:href="#DejaVuSans-20"/>
     <use x="31.787109" xlink:href="#DejaVuSans-43"/>
    </g>
   </g>
   <g id="text_42">
    <!--  N -->
    <g transform="translate(134.317301 242.401437)scale(0.1 -0.1)">
     <use xlink:href="#DejaVuSans-20"/>
     <use x="31.787109" xlink:href="#DejaVuSans-4e"/>
    </g>
   </g>
   <g id="text_43">
    <!--  C -->
    <g transform="translate(208.892353 205.119404)scale(0.1 -0.1)">
     <use xlink:href="#DejaVuSans-20"/>
     <use x="31.787109" xlink:href="#DejaVuSans-43"/>
    </g>
   </g>
   <g id="text_44">
    <!--  C -->
    <g transform="translate(229.485852 222.172606)scale(0.1 -0.1)">
     <use xlink:href="#DejaVuSans-20"/>
     <use x="31.787109" xlink:href="#DejaVuSans-43"/>
    </g>
   </g>
   <g id="text_45">
    <!--  C -->
    <g transform="translate(303.534202 205.171829)scale(0.1 -0.1)">
     <use xlink:href="#DejaVuSans-20"/>
     <use x="31.787109" xlink:href="#DejaVuSans-43"/>
    </g>
   </g>
   <g id="text_46">
    <!--  H -->
    <g transform="translate(325.061534 121.856622)scale(0.1 -0.1)">
     <defs>
      <path d="M 628 4666 
L 1259 4666 
L 1259 2753 
L 3553 2753 
L 3553 4666 
L 4184 4666 
L 4184 0 
L 3553 0 
L 3553 2222 
L 1259 2222 
L 1259 0 
L 628 0 
L 628 4666 
z
" id="DejaVuSans-48" transform="scale(0.015625)"/>
     </defs>
     <use xlink:href="#DejaVuSans-20"/>
     <use x="31.787109" xlink:href="#DejaVuSans-48"/>
    </g>
   </g>
   <g id="text_47">
    <!--  H -->
    <g transform="translate(285.28123 110.626072)scale(0.1 -0.1)">
     <use xlink:href="#DejaVuSans-20"/>
     <use x="31.787109" xlink:href="#DejaVuSans-48"/>
    </g>
   </g>
   <g id="text_48">
    <!--  H -->
    <g transform="translate(256.786839 160.611107)scale(0.1 -0.1)">
     <use xlink:href="#DejaVuSans-20"/>
     <use x="31.787109" xlink:href="#DejaVuSans-48"/>
    </g>
   </g>
   <g id="text_49">
    <!--  H -->
    <g transform="translate(280.043815 232.739218)scale(0.1 -0.1)">
     <use xlink:href="#DejaVuSans-20"/>
     <use x="31.787109" xlink:href="#DejaVuSans-48"/>
    </g>
   </g>
   <g id="text_50">
    <!--  H -->
    <g transform="translate(261.456649 284.081734)scale(0.1 -0.1)">
     <use xlink:href="#DejaVuSans-20"/>
     <use x="31.787109" xlink:href="#DejaVuSans-48"/>
    </g>
   </g>
   <g id="text_51">
    <!--  H -->
    <g transform="translate(252.85191 302.574692)scale(0.1 -0.1)">
     <use xlink:href="#DejaVuSans-20"/>
     <use x="31.787109" xlink:href="#DejaVuSans-48"/>
    </g>
   </g>
   <g id="text_52">
    <!--  H -->
    <g transform="translate(210.466888 305.854799)scale(0.1 -0.1)">
     <use xlink:href="#DejaVuSans-20"/>
     <use x="31.787109" xlink:href="#DejaVuSans-48"/>
    </g>
   </g>
   <g id="text_53">
    <!--  H -->
    <g transform="translate(174.190229 275.446821)scale(0.1 -0.1)">
     <use xlink:href="#DejaVuSans-20"/>
     <use x="31.787109" xlink:href="#DejaVuSans-48"/>
    </g>
   </g>
   <g id="text_54">
    <!--  H -->
    <g transform="translate(158.343541 190.913797)scale(0.1 -0.1)">
     <use xlink:href="#DejaVuSans-20"/>
     <use x="31.787109" xlink:href="#DejaVuSans-48"/>
    </g>
   </g>
   <g id="text_55">
    <!--  H -->
    <g transform="translate(171.644297 171.872317)scale(0.1 -0.1)">
     <use xlink:href="#DejaVuSans-20"/>
     <use x="31.787109" xlink:href="#DejaVuSans-48"/>
    </g>
   </g>
   <g id="text_56">
    <!--  H -->
    <g transform="translate(162.919641 190.008635)scale(0.1 -0.1)">
     <use xlink:href="#DejaVuSans-20"/>
     <use x="31.787109" xlink:href="#DejaVuSans-48"/>
    </g>
   </g>
   <g id="text_57">
    <!--  H -->
    <g transform="translate(127.38964 229.875856)scale(0.1 -0.1)">
     <use xlink:href="#DejaVuSans-20"/>
     <use x="31.787109" xlink:href="#DejaVuSans-48"/>
    </g>
   </g>
   <g id="text_58">
    <!--  H -->
    <g transform="translate(107.999329 269.238398)scale(0.1 -0.1)">
     <use xlink:href="#DejaVuSans-20"/>
     <use x="31.787109" xlink:href="#DejaVuSans-48"/>
    </g>
   </g>
   <g id="text_59">
    <!--  H -->
    <g transform="translate(208.46225 174.939037)scale(0.1 -0.1)">
     <use xlink:href="#DejaVuSans-20"/>
     <use x="31.787109" xlink:href="#DejaVuSans-48"/>
    </g>
   </g>
   <g id="text_60">
    <!--  H -->
    <g transform="translate(245.397318 207.499971)scale(0.1 -0.1)">
     <use xlink:href="#DejaVuSans-20"/>
     <use x="31.787109" xlink:href="#DejaVuSans-48"/>
    </g>
   </g>
   <g id="text_61">
    <!--  H -->
    <g transform="translate(310.077428 231.936236)scale(0.1 -0.1)">
     <use xlink:href="#DejaVuSans-20"/>
     <use x="31.787109" xlink:href="#DejaVuSans-48"/>
    </g>
   </g>
  </g>
 </g>
 <defs>
  <clipPath id="pd9a68584d5">
   <rect height="434.88" width="434.88" x="7.2" y="7.2"/>
  </clipPath>
 </defs>
</svg>
